<?xml version="1.0" encoding="utf-8"?>
<!-- Generator: Adobe Illustrator 28.1.0, SVG Export Plug-In . SVG Version: 6.00 Build 0)  -->
<svg version="1.1" id="Layer_1" xmlns="http://www.w3.org/2000/svg" xmlns:xlink="http://www.w3.org/1999/xlink" x="0px" y="0px"
	 viewBox="0 0 16 14.4" style="enable-background:new 0 0 16 14.4;" xml:space="preserve">
<style type="text/css">
	.st0{fill:#003865;}
</style>
<path id="Home" class="st0" d="M8,0c0,0-5,4.3-7.7,6.6C0.1,6.7,0,7,0,7.2C0,7.6,0.4,8,0.8,8c0,0,0,0,0,0h1.6v5.6
	c0,0.4,0.4,0.8,0.8,0.8l0,0h2.4c0.4,0,0.8-0.4,0.8-0.8l0,0v-3.2h3.2v3.2c0,0.4,0.4,0.8,0.8,0.8l0,0h2.4c0.4,0,0.8-0.4,0.8-0.8l0,0V8
	h1.6C15.6,8,16,7.6,16,7.2c0,0,0,0,0,0c0-0.2-0.1-0.5-0.3-0.6C12.9,4.3,8,0,8,0z"/>
</svg>
