<?xml version="1.0" encoding="utf-8"?>
<!DOCTYPE svg PUBLIC "-//W3C//DTD SVG 1.1//EN" "http://www.w3.org/Graphics/SVG/1.1/DTD/svg11.dtd">
<svg version="1.1" id="Layer_1" xmlns="http://www.w3.org/2000/svg" xmlns:xlink="http://www.w3.org/1999/xlink" x="0px" y="0px"
	 width="24px" height="24px" viewBox="0 0 24 24" enable-background="new 0 0 24 24" xml:space="preserve">
<g>
	<path fill="#EA4C3A" d="M24,24H0V0h24V24 M2.3,21.6h19.4V2.4H2.3"/>
	<path fill="#EA4C3A" d="M4.6,20.2c-0.5,0-0.8-0.3-0.9-0.5c-0.2-0.3-0.2-0.7-0.1-1.1c0.1-0.5,0.4-0.9,0.8-1.4
		c0.6-0.6,1.4-1.1,2.3-1.6c0.5-0.2,1-0.5,1.6-0.7c1-1.6,1.8-3.3,2.3-4.8c0.1-0.2,0.1-0.4,0.2-0.6c-0.2-0.5-0.4-1-0.4-1.3
		c-0.2-0.7-0.3-1.3-0.4-1.9c0-0.5,0-1.1,0-1.6c0.1-0.5,0.2-0.9,0.4-1.2c0.2-0.3,0.4-0.5,0.7-0.6c0.2-0.1,0.3-0.1,0.4-0.1
		c0.2,0,0.4,0,0.6,0c0.2,0,0.3,0.1,0.5,0.2c0.7,0.3,0.6,1,0.5,1.8l0,0.4c-0.1,1-0.4,2.5-0.9,4.2c0,0.1,0.1,0.1,0.1,0.2
		c0.4,0.7,0.9,1.6,1.6,2.4c0.3,0.4,0.6,0.8,1,1.2c0.6,0,1.1,0,1.7,0c0.6,0,1.2,0.1,1.7,0.3c0.6,0.2,1,0.3,1.4,0.6
		c0.5,0.3,0.9,0.7,1,1.2c0.2,0.5,0.2,1.1,0,1.6c-0.2,0.4-0.6,0.7-1.1,0.9c-0.4,0.1-0.9,0.2-1.4,0c-0.4-0.1-0.9-0.4-1.5-0.8
		c-0.6-0.4-1.1-0.9-1.7-1.6c-0.2-0.2-0.5-0.5-0.7-0.8c-0.4,0-0.8,0.1-1.4,0.2c-0.7,0.1-1.5,0.3-2.5,0.6c-0.4,0.1-0.9,0.3-1.3,0.5
		C9.1,16.1,9,16.1,9,16.2c-0.9,1.4-1.7,2.4-2.5,3.1c-0.6,0.5-1.1,0.8-1.6,0.9C4.8,20.2,4.7,20.2,4.6,20.2z M4.6,18.9l0,0.7L4.6,18.9
		L4.6,18.9z M6.9,17c-0.8,0.5-1.3,0.9-1.6,1.2c-0.3,0.3-0.4,0.6-0.5,0.7c0.2-0.1,0.5-0.3,0.8-0.5C6,18.1,6.4,17.6,6.9,17z M16,14.6
		c0.6,0.6,1,1,1.5,1.3c0.6,0.4,0.9,0.6,1.1,0.7c0.2,0.1,0.4,0.1,0.6,0c0.1,0,0.2-0.1,0.3-0.2c0-0.1,0.1-0.3,0-0.5
		c-0.1-0.2-0.3-0.4-0.6-0.6c-0.3-0.2-0.6-0.3-1.1-0.4c-0.5-0.1-1-0.2-1.5-0.3C16.3,14.6,16.2,14.6,16,14.6z M11.7,11.1
		c-0.5,1.2-1,2.3-1.5,3.2c1.1-0.3,1.9-0.5,2.6-0.6c0.2,0,0.4-0.1,0.6-0.1c-0.2-0.2-0.3-0.4-0.5-0.6C12.4,12.3,12,11.6,11.7,11.1z
		 M11.8,4.1L11.8,4.1l-0.1,0c0,0-0.1,0-0.1,0.1c0,0.1-0.1,0.2-0.1,0.6c-0.1,0.4-0.1,0.8,0,1.3c0,0.3,0.1,0.7,0.2,1.1
		c0.2-0.8,0.3-1.6,0.4-2.1l0-0.4c0-0.2,0-0.4,0-0.5C11.9,4.2,11.8,4.1,11.8,4.1z"/>
</g>
</svg>
