<?xml version="1.0" encoding="UTF-8"?><svg id="Apply_Building_Permit" xmlns="http://www.w3.org/2000/svg" viewBox="0 0 97.31 109.16"><defs><style>.cls-1{stroke-linecap:round;}.cls-1,.cls-2{fill:none;stroke:#000;stroke-linejoin:round;stroke-width:2px;}</style></defs><path class="cls-2" d="M54.11,46.34v-7.89c0-.24.09-.47.26-.64.17-.17.4-.27.64-.27h24.54c.5,0,.9.4.9.9v46.92"/><line class="cls-2" x1="54.11" y1="85.37" x2="54.11" y2="65.15"/><path class="cls-2" d="M59.4,37.7c0-4.35,3.53-7.87,7.87-7.87s7.88,3.52,7.88,7.87"/><line class="cls-1" x1="67.28" y1="29.2" x2="67.28" y2="23.32"/><rect class="cls-2" x="59.51" y="43.78" width="5.31" height="5.11"/><rect class="cls-2" x="69.75" y="43.78" width="5.31" height="5.11"/><polyline class="cls-2" points="60.72 53.89 64.82 53.89 64.82 59 59.15 59"/><rect class="cls-2" x="69.75" y="53.89" width="5.31" height="5.11"/><rect class="cls-2" x="59.51" y="74.12" width="5.31" height="5.11"/><rect class="cls-2" x="69.75" y="74.12" width="5.31" height="5.11"/><rect class="cls-2" x="59.51" y="64" width="5.31" height="5.11"/><rect class="cls-2" x="69.75" y="64" width="5.31" height="5.11"/><path class="cls-2" d="M41.37,85.84l-2.47-14.96c5.29-1.74,15.57-7.91,18.28-14.91.78-2,1.42-3.97-1.16-5.65-2.5-1.63-4.65.68-5.74,2.09-3.75,4.84-9.18,7.75-14.66,9.28l-4.09,5.6-7.81-3.77c-6.27,1.3-9.93,4.83-9.22,11.16l1.91,11.17"/><polyline class="cls-2" points="24.54 75.81 24.54 75.81 25.97 85.37"/><path class="cls-2" d="M18.02,51.78c.13,1.37.57,2.73,1.37,3.97,2.68,4.17,8.23,5.39,12.41,2.71,3.81-2.44,5.14-7.28,3.31-11.29"/><path class="cls-2" d="M35.78,46.62c-1.63-5.85-6.99-8.8-12.1-7.43-.94.25-1.79.63-2.55,1.12-3.72,2.39-5.25,7.24-4.11,10.97"/><line class="cls-1" x1="16.41" y1="51.69" x2="38.95" y2="45.6"/></svg>