<?xml version="1.0" encoding="UTF-8"?><svg id="Upcoming_Meetings" xmlns="http://www.w3.org/2000/svg" viewBox="0 0 97.31 109.16"><defs><style>.cls-1{stroke-miterlimit:10;}.cls-1,.cls-2{fill:none;stroke:#000;stroke-width:2px;}.cls-2{stroke-linejoin:round;}</style></defs><path class="cls-1" d="M16.94,59.29v-.64c0-2.27,1.65-4.54,6.08-4.54h3.88c4.37,0,6.04,2.12,6.04,4.53v.64"/><path class="cls-1" d="M24.94,51.1c2.52,0,4.57-2.05,4.57-4.57s-2.05-4.57-4.57-4.57-4.57,2.04-4.57,4.57,2.05,4.57,4.57,4.57Z"/><path class="cls-2" d="M15.86,65.44v-4.13c0-1.19.96-2.15,2.15-2.15h13.86c1.19,0,2.15.96,2.15,2.15v4.13"/><path class="cls-1" d="M16.94,80.33v-.64c0-2.27,1.65-4.54,6.08-4.54h3.88c4.37,0,6.04,2.12,6.04,4.53v.64"/><path class="cls-1" d="M24.94,72.14c2.52,0,4.57-2.05,4.57-4.57s-2.05-4.57-4.57-4.57-4.57,2.04-4.57,4.57,2.05,4.57,4.57,4.57Z"/><path class="cls-2" d="M15.86,86.47v-4.13c0-1.19.96-2.15,2.15-2.15h13.86c1.19,0,2.15.96,2.15,2.15v4.13"/><path class="cls-1" d="M61.92,59.29v-.64c0-2.27,1.65-4.54,6.09-4.54h3.88c4.37,0,6.04,2.12,6.04,4.53v.64"/><path class="cls-1" d="M69.92,51.1c2.52,0,4.57-2.05,4.57-4.57s-2.05-4.57-4.57-4.57-4.57,2.04-4.57,4.57,2.05,4.57,4.57,4.57Z"/><path class="cls-2" d="M60.84,65.44v-4.13c0-1.19.96-2.15,2.15-2.15h13.86c1.19,0,2.15.96,2.15,2.15v4.13"/><path class="cls-1" d="M61.92,80.33v-.64c0-2.27,1.65-4.54,6.09-4.54h3.88c4.37,0,6.04,2.12,6.04,4.53v.64"/><path class="cls-1" d="M69.92,72.14c2.52,0,4.57-2.05,4.57-4.57s-2.05-4.57-4.57-4.57-4.57,2.04-4.57,4.57,2.05,4.57,4.57,4.57Z"/><path class="cls-2" d="M60.84,86.47v-4.13c0-1.19.96-2.15,2.15-2.15h13.86c1.19,0,2.15.96,2.15,2.15v4.13"/><path class="cls-1" d="M39.43,65.27v-.64c0-2.27,1.65-4.54,6.08-4.54h3.88c4.37,0,6.04,2.12,6.04,4.53v.64"/><path class="cls-1" d="M47.43,57.08c2.52,0,4.57-2.05,4.57-4.57s-2.05-4.57-4.57-4.57-4.57,2.04-4.57,4.57,2.05,4.57,4.57,4.57Z"/><path class="cls-2" d="M38.35,71.41v-4.13c0-1.19.96-2.15,2.15-2.15h13.86c1.19,0,2.15.96,2.15,2.15v4.13"/><path class="cls-1" d="M39.43,86.31v-.64c0-2.27,1.65-4.54,6.08-4.54h3.88c4.37,0,6.04,2.11,6.04,4.53v.64"/><path class="cls-1" d="M47.43,78.12c2.52,0,4.57-2.05,4.57-4.57s-2.05-4.57-4.57-4.57-4.57,2.04-4.57,4.57,2.05,4.57,4.57,4.57Z"/><path class="cls-2" d="M38.35,92.45v-4.13c0-1.19.96-2.15,2.15-2.15h13.86c1.19,0,2.15.96,2.15,2.15v4.13"/><path class="cls-2" d="M42.37,46.96v-2.93c-1.67,0-2.56-.53-2.56-2.25v-7.8c0-4.02,1.74-5.65,5.02-5.87l2.61,2.13,2.6-2.13c3.28.22,5.02,1.85,5.02,5.87v7.8c0,1.49-.87,2.25-2.57,2.25v2.91"/><path class="cls-2" d="M51.72,20.99c0-2.37-1.92-4.29-4.28-4.29s-4.29,1.92-4.29,4.29,1.92,4.28,4.29,4.28,4.28-1.92,4.28-4.28Z"/></svg>