<?xml version="1.0" encoding="UTF-8"?><svg id="FWRevisedCode" xmlns="http://www.w3.org/2000/svg" viewBox="0 0 117.63 115.17"><defs><style>.cls-1{fill:none;stroke:#000;stroke-linecap:round;stroke-linejoin:round;stroke-width:2px;}</style></defs><path class="cls-1" d="M92.26,79.4h-24.04c-3.99,0-7.63,2.25-9.41,5.82h0c-1.78-3.57-5.43-5.82-9.41-5.82h-24.04V24.14h24.04c3.99,0,7.63,2.25,9.41,5.82h0c1.78-3.57,5.43-5.82,9.41-5.82h24.04v55.26Z"/><line class="cls-1" x1="58.82" y1="83.76" x2="58.82" y2="29.96"/><line class="cls-1" x1="34.1" y1="35.77" x2="51.55" y2="35.77"/><line class="cls-1" x1="34.1" y1="44.5" x2="51.55" y2="44.5"/><line class="cls-1" x1="34.1" y1="53.22" x2="51.55" y2="53.22"/><line class="cls-1" x1="83.54" y1="35.77" x2="66.09" y2="35.77"/><line class="cls-1" x1="83.54" y1="44.5" x2="66.09" y2="44.5"/><line class="cls-1" x1="83.54" y1="53.22" x2="66.09" y2="53.22"/><line class="cls-1" x1="34.1" y1="61.95" x2="51.55" y2="61.95"/><line class="cls-1" x1="34.1" y1="70.67" x2="51.55" y2="70.67"/><line class="cls-1" x1="66.09" y1="70.67" x2="83.54" y2="70.67"/><line class="cls-1" x1="66.09" y1="61.95" x2="83.54" y2="61.95"/><path class="cls-1" d="M92.26,28.5h2.91c1.61,0,2.91,1.3,2.91,2.91v50.9c0,1.61-1.3,2.91-2.91,2.91h-23.27c-3.99,0-6.94,2.25-8.73,5.82h-8.73c-1.78-3.57-4.74-5.82-8.73-5.82h-23.27c-1.61,0-2.91-1.3-2.91-2.91V31.41c0-1.61,1.3-2.91,2.91-2.91h2.91"/></svg>