<?xml version="1.0" encoding="UTF-8"?><svg id="parks_rec_Commission" xmlns="http://www.w3.org/2000/svg" viewBox="0 0 87.3 109.16"><defs><style>.cls-1{stroke-miterlimit:10;}.cls-1,.cls-2{fill:none;stroke:#000;stroke-width:2px;}.cls-2{stroke-linejoin:round;}</style></defs><path class="cls-2" d="M29.85,25.84c0-1.51-1.22-2.73-2.73-2.73-.38,0-.74.08-1.06.21-.59-1.21-1.82-2.05-3.26-2.05s-2.61.81-3.22,1.97c-.26-.08-.53-.14-.82-.14-1.51,0-2.73,1.22-2.73,2.73h-3.79"/><path class="cls-2" d="M82.64,29.74c0-1.65-1.33-2.98-2.98-2.98-.41,0-.8.08-1.16.23-.65-1.32-1.99-2.24-3.57-2.24s-2.86.88-3.52,2.16c-.28-.09-.58-.15-.9-.15-1.65,0-2.98,1.33-2.98,2.98h-4.15"/><path class="cls-2" d="M23.84,40.83c.19-.6.51-1.17,1.03-1.52.51-.35,1.23-.03,1.75.3.24.15.47.39.75.34.14-.03.25-.12.36-.21.51-.43,1.21-1.21,1.83-.97.72.28.91,1.21,1.44,1.78"/><path class="cls-2" d="M47.06,29.41c.19-.6.51-1.17,1.03-1.52.51-.35,1.23-.03,1.75.3.24.15.47.39.75.34.14-.03.25-.12.36-.21.51-.43,1.21-1.21,1.83-.97.72.28.91,1.21,1.44,1.78"/><rect class="cls-1" x="12.63" y="70.89" width="45.91" height="4.52"/><rect class="cls-1" x="15.89" y="62.93" width="39.38" height="4.52"/><rect class="cls-1" x="15.89" y="54.97" width="39.38" height="4.52"/><rect class="cls-1" x="19.33" y="59.49" width="3.44" height="3.44"/><rect class="cls-1" x="19.33" y="67.45" width="3.44" height="3.44"/><rect class="cls-1" x="48.4" y="59.49" width="3.44" height="3.44"/><rect class="cls-1" x="48.4" y="67.45" width="3.44" height="3.44"/><polyline class="cls-1" points="19.05 82.73 19.05 75.41 23.05 75.41 23.05 82.73"/><polyline class="cls-1" points="48.12 82.73 48.12 75.41 52.12 75.41 52.12 82.73"/><path class="cls-1" d="M7.8,82.73c.5-.04,77.32,0,77.32,0"/><path class="cls-1" d="M57.46,82.59c-.41-1.22-1.16-2.31-2.15-3.13"/><path class="cls-1" d="M58.63,82.58c-.02-1.23.51-2.47,1.43-3.3"/><path class="cls-1" d="M77.52,82.59c-.41-1.22-1.16-2.31-2.15-3.13"/><path class="cls-1" d="M78.69,82.58c-.02-1.23.51-2.47,1.43-3.3"/><line class="cls-1" x1="9.66" y1="82.72" x2="9.66" y2="46.66"/><polygon class="cls-1" points="7.88 37.34 11.45 37.34 13.63 46.92 5.7 46.92 7.88 37.34"/><path class="cls-1" d="M50.64,52.85c.98-4.8,5.23-8.42,10.33-8.42,2.73,0,5.22,1.04,7.09,2.74"/><path class="cls-1" d="M69.2,61.56c-1.93,2.41-4.9,3.96-8.23,3.96-1.24,0-2.44-.22-3.54-.61"/><path class="cls-1" d="M57.42,45.27c0-5.98,4.85-10.82,10.82-10.82s10.82,4.85,10.82,10.82c0,2.99-1.21,5.69-3.17,7.65"/><path class="cls-1" d="M78.6,46.66c4.39.9,7.7,4.79,7.7,9.44,0,5.32-4.32,9.64-9.64,9.64-3.01,0-5.69-1.38-7.46-3.53"/><line class="cls-1" x1="69.2" y1="54.41" x2="69.2" y2="83.22"/><path class="cls-1" d="M69.03,61.94c-1.04-.37-2.07-.86-2.84-1.65-.78-.79-1.27-1.91-1.11-3"/><path class="cls-1" d="M69.03,61.94c1.04-.37,2.07-.86,2.84-1.65.78-.79,1.27-1.91,1.11-3"/><line class="cls-1" x1="7.08" y1="40.83" x2="12.24" y2="40.83"/></svg>