<?xml version="1.0" encoding="UTF-8"?><svg id="Performing_Arts" xmlns="http://www.w3.org/2000/svg" viewBox="0 0 84.55 109.16"><defs><style>.cls-1{stroke-width:0px;}</style></defs><path class="cls-1" d="M74.43,76.7c-.21,0-.42-.02-.64-.05-1.44-.23-2.63-.96-3.18-2.18-.55-1.2-.34-2.58.34-3.83,1.31-2.44,3.96-3.53,6.72-3.08-.06-.55-.17-1-.33-1.41-.39-1-1.15-1.83-2.7-2.46l-.11-.07-.2.3c-4.71,7-10.49,11.63-16.63,11.81-.32.01-.64,0-.96-.01-.68-.03-1.37-.12-2.05-.27-.09-.02-.17-.04-.25-.08-3.07-1.42-5.32-3.98-6.75-7.35l-.56-1.53-.03.04c-1.21,1.66-2.75,3-4.63,3.95-.08.04-.16.07-.25.09-.95.24-1.92.36-2.88.37-.32,0-.64,0-.96-.03-5.05-.34-10.09-3.7-14.41-9.42l-.4-.56-.07.1c-.91,1.18-2.02,1.93-3.34,2.3-.84.24-1.73.31-2.66.27h-.07s-.29.78-.29.78c-.13.31-.3.61-.5.9-.81,1.16-2.5,2.12-4.21,2.23-.24.02-.49.02-.73,0-.65-.06-1.14-.63-1.08-1.28.05-.65.62-1.14,1.28-1.09,1.11.09,2.37-.6,2.8-1.22.12-.17.22-.37.33-.59l-.39-.11c-1.48-.3-2.95-1.16-3.96-2.31s-1.69-2.74-1.24-4.45c.37-1.41,1.21-2.52,2.48-2.95,1.25-.43,2.6-.08,3.78.72,2.29,1.55,3.13,4.29,2.41,6.99.53,0,.99-.06,1.41-.18.78-.22,1.48-.65,2.11-1.48l.48-.77-.92-1.47c-2.2-3.75-4.14-8.17-5.69-13.17-.21-.69.24-1.41.95-1.52,9.07-1.45,20.83-5.55,28.83-10.02.64-.36,1.45-.05,1.7.64.7,2,1.32,4,1.83,5.98l.33,1.42.95-2.59c.26-.67,1.06-.95,1.69-.59,7.98,4.53,19.73,8.7,28.77,10.21.73.12,1.17.87.92,1.56-1.27,3.63-2.78,7.08-4.48,10.23l-1.24,2.17,1.14.58c1.27.78,2.12,1.81,2.62,3.09.32.81.48,1.69.54,2.62v.07l.81.21c.32.11.64.24.95.42,1.41.79,2.67,2.74,2.7,4.69.01.65-.51,1.2-1.16,1.21-.65.02-1.2-.5-1.21-1.16-.02-1.11-.82-2.3-1.49-2.67-.18-.1-.39-.19-.65-.26l-.04.39c-.15,1.5-.86,3.04-1.9,4.16-.91.98-2.19,1.75-3.67,1.74ZM74.46,74.32c1.47-.02,2.99-1.86,3.18-3.76l.05-.6-.41-.07c-1.9-.31-3.47.44-4.24,1.86-.45.82-.41,1.4-.27,1.72.13.3.5.67,1.4.81.1.02.2.03.29.02ZM56.86,73.35c7.87.32,15.98-8.54,21.31-21.96l.62-1.65-2.2-.43c-7.42-1.64-15.89-4.65-22.7-8.05l-2.02-1.08-.6,1.64c-.33.95-.63,1.89-.91,2.82-.05.15-.12.29-.22.42l-.06.05.39,2.83c.61,5.63.23,10.79-1.36,14.88l-.37.8.12.27c.91,4.07,2.8,7.02,5.41,8.7l1.05.57,1.55.2ZM39.44,68.54c.23,0,.46-.01.69-.03l1.4-.23,1.32-.81c6.34-4.67,7.12-16.65,2.9-30.46l-.55-1.67-1.99,1.04c-6.82,3.35-15.31,6.31-22.74,7.91l-2.25.43.68,2.02c5.21,14.35,13.43,21.87,20.55,21.81ZM59.05,67.97c-.11,0-.23-.03-.35-.07l-2.8-.97c-.62-.22-.95-.9-.73-1.51s.89-.94,1.51-.73l2.8.98c.62.22.95.89.73,1.51-.18.5-.65.81-1.16.8ZM64.64,67.3c-.38.04-.77-.12-1.02-.44-2.82-3.5-6.18-4.91-10.53-3.71-.63.17-1.29-.2-1.46-.83-.18-.63.2-1.28.83-1.45,5.38-1.47,9.68.38,13.01,4.52.41.51.33,1.26-.18,1.66-.19.15-.42.24-.64.26ZM38.19,64.6c-.5.02-.98-.29-1.16-.79-.22-.62.1-1.29.72-1.51l2.8-.98c.62-.22,1.3.11,1.51.72.22.62-.11,1.3-.73,1.51l-2.8.99c-.11.04-.23.06-.35.07ZM15.7,61.01l.1-.4c.5-1.86-.09-3.5-1.43-4.4-.78-.53-1.35-.55-1.68-.44-.31.1-.72.43-.95,1.31-.4,1.52,1.39,3.43,3.37,3.83l.59.11ZM34.95,60.89c-1.08-.02-2.2-.18-3.38-.49-.63-.17-1-.82-.83-1.45.17-.63.82-1,1.45-.83,4.36,1.18,7.72-.23,10.53-3.75.41-.51,1.15-.59,1.66-.19.51.41.6,1.15.19,1.67-2.59,3.24-5.78,5.08-9.62,5.04ZM69.21,56.04c-.52,0-1.03-.08-1.52-.24-1.33-.43-2.37-1.43-3.13-2.87-.31-.58-.08-1.3.49-1.6s1.29-.08,1.6.49c.55,1.04,1.16,1.52,1.77,1.73.63.2,1.46.17,2.56-.25.61-.24,1.3.08,1.53.69.23.61-.08,1.3-.69,1.53-.88.33-1.76.53-2.62.53ZM57.94,52.09c-.52,0-1.03-.08-1.52-.24-1.33-.44-2.37-1.43-3.13-2.87-.31-.58-.08-1.3.49-1.61.58-.3,1.29-.08,1.6.5.55,1.04,1.16,1.52,1.77,1.72.63.21,1.46.17,2.57-.25.61-.24,1.29.08,1.53.69.23.61-.08,1.29-.69,1.52-.88.33-1.76.53-2.62.53ZM25.76,52.08c-.19,0-.39-.04-.57-.14-.58-.3-.8-1.02-.5-1.6.76-1.44,1.79-2.44,3.13-2.88,1.32-.43,2.74-.25,4.14.27.61.23.92.92.7,1.53-.23.61-.92.92-1.53.7-1.1-.42-1.93-.45-2.56-.25-.61.21-1.22.7-1.77,1.73-.21.4-.62.63-1.04.63ZM37.02,48.11c-.19,0-.39-.04-.57-.14-.58-.3-.8-1.02-.49-1.6.75-1.43,1.79-2.44,3.13-2.87,1.31-.43,2.73-.25,4.13.27.61.23.92.91.7,1.52-.23.62-.92.93-1.53.7-1.1-.41-1.93-.45-2.56-.24-.61.2-1.22.69-1.77,1.73-.21.4-.61.63-1.04.64Z" marker-end="none" marker-start="none"/></svg>