<?xml version="1.0" encoding="UTF-8"?><svg id="Layer_11" xmlns="http://www.w3.org/2000/svg" viewBox="0 0 83.61 109.16"><defs><style>.cls-1{stroke-miterlimit:10;}.cls-1,.cls-2{fill:none;stroke:#000;stroke-width:2px;}.cls-2{stroke-linejoin:round;}</style></defs><path class="cls-2" d="M22.36,45.57c.57-3.52,3.21-3.39,3.21-3.39h-.1s2.63-.13,3.21,3.39"/><path class="cls-2" d="M28.68,45.57c.57-3.52,3.21-3.39,3.21-3.39h-.1s2.63-.13,3.21,3.39"/><path class="cls-2" d="M35,45.57c.57-3.52,3.21-3.39,3.21-3.39h-.1s2.63-.13,3.21,3.39"/><path class="cls-2" d="M41.32,45.57c.57-3.52,3.21-3.39,3.21-3.39h-.1s2.63-.13,3.21,3.39"/><path class="cls-2" d="M47.63,45.57c.57-3.52,3.51-3.39,3.51-3.39h-.1s2.63-.13,3.21,3.39"/><path class="cls-2" d="M22.36,45.44c2.9-17.77,16.19-17.11,16.19-17.11h-.5s13.3-.66,16.19,17.11"/><path class="cls-2" d="M38.56,28.32c7.13,2.99,8.66,11.32,8.99,15.21l.08,1.4"/><line class="cls-2" x1="38.06" y1="28.32" x2="38.06" y2="55.34"/><path class="cls-2" d="M28.68,45.5s.29-12.77,8.86-17.15"/><path class="cls-2" d="M41.16,32.4c1.23,1.05,2.17,2.44,2.69,3.97"/><line class="cls-1" x1="38.06" y1="49.48" x2="40.02" y2="49.48"/><line class="cls-1" x1="40.02" y1="48.5" x2="40.02" y2="50.46"/><polyline class="cls-1" points="25.63 75.49 22.15 75.49 22.15 55.24 54.47 55.24 54.47 75.49 34.85 75.49"/><path class="cls-1" d="M34.85,75.49c0,2.55-2.06,4.61-4.61,4.61s-4.61-2.06-4.61-4.61,2.07-4.61,4.61-4.61,4.61,2.06,4.61,4.61Z"/><circle class="cls-1" cx="30.24" cy="75.49" r="2.09"/><polygon class="cls-1" points="59.98 75.49 54.47 75.49 54.47 70.88 59.17 71.71 59.98 71.85 59.98 75.49"/><rect class="cls-1" x="56.53" y="75.49" width="1.94" height="4.61"/><rect class="cls-1" x="22.15" y="55.24" width="32.32" height="4.94"/><line class="cls-1" x1="25.63" y1="63.11" x2="36.68" y2="63.11"/><rect class="cls-1" x="42.76" y="63.11" width="7.52" height="9.69"/><rect class="cls-1" x="27.31" y="52.87" width="6.17" height="2.37"/><rect class="cls-1" x="43.44" y="52.87" width="6.17" height="2.37"/><path class="cls-1" d="M44.62,52.87c0-1.13.92-2.05,2.05-2.05s2.05.92,2.05,2.05"/><line class="cls-1" x1="17.34" y1="80.1" x2="63.96" y2="80.1"/><line class="cls-1" x1="26" y1="65.37" x2="27.31" y2="65.37"/><line class="cls-1" x1="26" y1="67.25" x2="27.31" y2="67.25"/><line class="cls-1" x1="52.49" y1="56.96" x2="51.12" y2="56.96"/><line class="cls-1" x1="52.49" y1="58.46" x2="51.12" y2="58.46"/><path class="cls-1" d="M58.88,37.57c0,.91-.74,1.65-1.65,1.65s-1.65-.74-1.65-1.65.74-1.65,1.65-1.65,1.65.74,1.65,1.65Z"/><circle class="cls-1" cx="23.21" cy="31.79" r="1.65"/><circle class="cls-1" cx="21.09" cy="50.15" r="1.65"/><line class="cls-1" x1="29.93" y1="48.5" x2="31.15" y2="48.5"/><line class="cls-1" x1="18.83" y1="42.42" x2="20.05" y2="42.42"/><line class="cls-1" x1="50.33" y1="46.64" x2="51.55" y2="46.64"/><line class="cls-1" x1="55.31" y1="51.4" x2="56.53" y2="51.4"/><line class="cls-1" x1="52.49" y1="33.08" x2="53.71" y2="33.08"/><line class="cls-1" x1="20.48" y1="36.63" x2="21.7" y2="36.63"/></svg>