<svg width="96" height="96" viewBox="0 0 96 96" fill="none" xmlns="http://www.w3.org/2000/svg">
<g clip-path="url(#clip0_1_770)">
<path d="M48 96C74.5097 96 96 74.5097 96 48C96 21.4903 74.5097 0 48 0C21.4903 0 0 21.4903 0 48C0 74.5097 21.4903 96 48 96Z" fill="#068C72"/>
<path d="M39.393 30.466C41.7791 28.5344 44.7784 27.5219 47.847 27.612C53.589 27.612 58.468 30.933 58.468 34.838C58.275 36.4079 57.5963 37.8783 56.5269 39.0437C55.4574 40.209 54.0506 41.0112 52.503 41.338C49.752 42.251 45.914 43.066 45.914 48.858" stroke="#050D17" stroke-width="2.5" stroke-linecap="round" stroke-linejoin="round"/>
<path d="M45.918 55.613V56.58" stroke="#050D17" stroke-width="2.5" stroke-linecap="round" stroke-linejoin="round"/>
<path d="M48.4 16C28.85 16 13 28.455 13 43.812C13.1139 47.7304 14.1384 51.5684 15.9922 55.0224C17.8461 58.4763 20.4785 61.4514 23.681 63.712L24.541 79.105L37.994 70.405C41.4026 71.2198 44.8954 71.6297 48.4 71.626C67.953 71.626 83.8 59.175 83.8 43.81C83.8 28.445 67.957 16 48.4 16Z" stroke="#050D17" stroke-width="2.5" stroke-linecap="round" stroke-linejoin="round"/>
</g>
<defs>
<clipPath id="clip0_1_770">
<rect width="96" height="96" fill="white"/>
</clipPath>
</defs>
</svg>
