<svg width="96" height="96" viewBox="0 0 96 96" fill="none" xmlns="http://www.w3.org/2000/svg">
<g clip-path="url(#clip0_1_780)">
<path d="M48 96C74.5097 96 96 74.5097 96 48C96 21.4903 74.5097 0 48 0C21.4903 0 0 21.4903 0 48C0 74.5097 21.4903 96 48 96Z" fill="#068C72"/>
<path d="M25.3196 57.3304L29.7496 56.1426L31.1741 61.4556C31.2132 61.6014 31.2876 61.7353 31.3909 61.8455C31.4941 61.9556 31.6229 62.0386 31.7659 62.087L34.4338 62.989L36.2069 69.6023C36.25 69.7629 36.336 69.9088 36.4557 70.0243L40.3009 73.7419C40.4148 73.8518 40.5552 73.9305 40.7084 73.9702C40.8617 74.0098 41.0226 74.0091 41.1755 73.9682L45.6055 72.7804C45.8405 72.7174 46.0408 72.5637 46.1624 72.353C46.2839 72.1423 46.3169 71.892 46.2539 71.6571L42.6149 58.0848L46.0732 55.5008C46.2202 55.391 46.3308 55.2396 46.3908 55.0663C46.4508 54.8929 46.4575 54.7055 46.4099 54.5284L45.9266 52.7258L49.5024 52.6151C54.9092 52.4538 60.2764 53.586 65.1573 55.9175C65.3558 56.0125 65.5818 56.0331 65.7942 55.9756C66.9684 55.6594 67.9692 54.8903 68.577 53.8371C69.1849 52.7839 69.3501 51.5326 69.0365 50.3577L62.3853 25.5508C62.0691 24.3763 61.2997 23.3753 60.246 22.7675C59.1924 22.1597 57.9406 21.9948 56.7656 22.309C56.5529 22.3654 56.3675 22.4963 56.2432 22.6779C53.1833 27.1385 49.1024 30.8039 44.3401 33.369L37.772 36.8976L21.0437 41.3827C20.3394 41.5726 19.7391 42.0342 19.3745 42.6661C19.0099 43.298 18.9109 44.0488 19.099 44.7536L21.9496 55.3854C22.1395 56.0896 22.6009 56.6898 23.2326 57.0544C23.8643 57.419 24.6148 57.5182 25.3196 57.3304ZM32.8194 60.5092L31.5213 55.6676L39.4947 53.5298L40.5177 57.3455L35.0439 61.2599L32.8194 60.5092ZM41.2036 72.0647L37.9145 68.8845L36.2447 62.6567L41.0232 59.2384L44.2436 71.2497L41.2036 72.0647ZM44.4764 54.3996L42.1038 56.1747L41.2673 53.0545L42.0507 52.8445L44.0441 52.7832L44.4764 54.3996ZM60.6118 26.0264L67.2629 50.8332C67.4091 51.3825 67.3819 51.9636 67.1848 52.4967C66.9878 53.0299 66.6306 53.489 66.1623 53.8112L58.1688 23.9975C58.7356 24.0422 59.2747 24.2612 59.7121 24.6244C60.1495 24.9877 60.4638 25.4774 60.6118 26.0264ZM45.2113 34.9848C49.6527 32.592 53.5388 29.2884 56.6153 25.29L64.1708 53.4701C59.5068 51.5464 54.489 50.6293 49.446 50.7789L42.6129 50.9905L39.1889 38.2199L45.2113 34.9848ZM40.7933 51.2868L31.0483 53.8995L27.7217 41.4922L37.4667 38.8795L40.7933 51.2868ZM20.8707 44.2786C20.808 44.0437 20.841 43.7935 20.9626 43.5829C21.0841 43.3723 21.2842 43.2185 21.519 43.1553L25.9491 41.9675L29.2746 54.371L24.8446 55.5587C24.6096 55.6214 24.3594 55.5884 24.1488 55.4669C23.9382 55.3453 23.7845 55.1452 23.7212 54.9104L20.8707 44.2786Z" fill="#050D17"/>
<path d="M35.2345 58.4719C35.7279 58.3396 36.0207 57.8323 35.8884 57.3389C35.7561 56.8455 35.2488 56.5527 34.7554 56.685C34.2619 56.8173 33.9692 57.3246 34.1015 57.818C34.2338 58.3114 34.741 58.6042 35.2345 58.4719Z" fill="#050D17"/>
<path d="M73.3865 34.8277L69.0448 35.9918L69.5242 37.7797L73.8658 36.6156L73.3865 34.8277Z" fill="#050D17"/>
<path d="M69.2534 39.6907L68.3367 41.2792L72.3087 43.5714L73.2254 41.9829L69.2534 39.6907Z" fill="#050D17"/>
<path d="M68.6137 29.7899L66.3212 33.7617L67.9096 34.6786L70.2021 30.7067L68.6137 29.7899Z" fill="#050D17"/>
</g>
<defs>
<clipPath id="clip0_1_780">
<rect width="96" height="96" fill="white"/>
</clipPath>
</defs>
</svg>
