<svg xmlns="http://www.w3.org/2000/svg" width="15.836" height="12.845" viewBox="0 0 15.836 12.845"><defs><style>.a{fill:#36b4a0;fill-rule:evenodd;}</style></defs><path class="a" d="M43.015,14.845a9.156,9.156,0,0,0,9.238-9.238v-.44A7.152,7.152,0,0,0,53.836,3.5a7.3,7.3,0,0,1-1.848.528A3.423,3.423,0,0,0,53.4,2.264a8.07,8.07,0,0,1-2.024.792A3.142,3.142,0,0,0,49,2a3.305,3.305,0,0,0-3.255,3.255,1.715,1.715,0,0,0,.088.7,9.1,9.1,0,0,1-6.686-3.431A3.369,3.369,0,0,0,38.7,4.2a3.5,3.5,0,0,0,1.408,2.727,2.966,2.966,0,0,1-1.5-.44h0a3.215,3.215,0,0,0,2.639,3.167,2.712,2.712,0,0,1-.88.088,1.5,1.5,0,0,1-.616-.088,3.333,3.333,0,0,0,3.079,2.287,6.643,6.643,0,0,1-4.047,1.408A2.436,2.436,0,0,1,38,13.261a8.3,8.3,0,0,0,5.015,1.584" transform="translate(-38 -2)"/></svg>