<svg width="96" height="96" viewBox="0 0 96 96" fill="none" xmlns="http://www.w3.org/2000/svg">
<g clip-path="url(#clip0_1_807)">
<path d="M48 96C74.5097 96 96 74.5097 96 48C96 21.4903 74.5097 0 48 0C21.4903 0 0 21.4903 0 48C0 74.5097 21.4903 96 48 96Z" fill="#068C72"/>
<path d="M40.105 32.611C40.1074 30.5936 40.9098 28.6595 42.3362 27.2329C43.7626 25.8063 45.6966 25.0036 47.714 25.001" stroke="#050D17" stroke-width="2.5" stroke-miterlimit="10" stroke-linecap="round"/>
<path d="M28.3051 76.578H67.3531" stroke="#050D17" stroke-width="2.5" stroke-miterlimit="10"/>
<path d="M68.66 69.989V59.363C68.6571 58.2941 68.2316 57.2697 67.4762 56.5134C66.7208 55.7571 65.697 55.3302 64.628 55.326L55.493 55.338C51.464 49.678 56.249 43.591 56.249 43.591C57.89 41.1398 59.2088 38.4877 60.173 35.7C60.6423 33.8393 60.6809 31.8961 60.2859 30.0182C59.8909 28.1404 59.0727 26.3774 57.8936 24.8635C56.7144 23.3495 55.2054 22.1246 53.4815 21.2818C51.7575 20.439 49.864 20.0006 47.945 20H47.718C45.7995 20.002 43.9067 20.4412 42.1835 21.2844C40.4602 22.1276 38.9518 23.3526 37.773 24.8662C36.5941 26.3797 35.7758 28.1421 35.3802 30.0194C34.9846 31.8967 35.0222 33.8394 35.49 35.7C36.4545 38.4864 37.7722 41.1377 39.411 43.589C39.411 43.589 44.198 49.675 40.167 55.336L31.028 55.326C29.9586 55.3294 28.934 55.7559 28.1779 56.5123C27.4219 57.2687 26.9959 58.2936 26.993 59.363V69.989H68.66Z" stroke="#050D17" stroke-width="2.5" stroke-miterlimit="10"/>
</g>
<defs>
<clipPath id="clip0_1_807">
<rect width="96" height="96" fill="white"/>
</clipPath>
</defs>
</svg>
