<svg width="96" height="96" viewBox="0 0 96 96" fill="none" xmlns="http://www.w3.org/2000/svg">
<g clip-path="url(#clip0_1_750)">
<path d="M48 96C74.5097 96 96 74.5097 96 48C96 21.4903 74.5097 0 48 0C21.4903 0 0 21.4903 0 48C0 74.5097 21.4903 96 48 96Z" fill="#068C72"/>
<path d="M68 21H28C27.7348 21 27.4804 20.8946 27.2929 20.7071C27.1054 20.5196 27 20.2652 27 20C27 19.7348 27.1054 19.4804 27.2929 19.2929C27.4804 19.1054 27.7348 19 28 19H68C68.2652 19 68.5196 19.1054 68.7071 19.2929C68.8946 19.4804 69 19.7348 69 20C69 20.2652 68.8946 20.5196 68.7071 20.7071C68.5196 20.8946 68.2652 21 68 21Z" fill="#050D17"/>
<path d="M40 37C39.7348 37 39.4804 36.8946 39.2929 36.7071C39.1054 36.5196 39 36.2652 39 36V24C39 23.7348 39.1054 23.4804 39.2929 23.2929C39.4804 23.1054 39.7348 23 40 23C40.2652 23 40.5196 23.1054 40.7071 23.2929C40.8946 23.4804 41 23.7348 41 24V36C41 36.2652 40.8946 36.5196 40.7071 36.7071C40.5196 36.8946 40.2652 37 40 37Z" fill="#050D17"/>
<path d="M55 33H54C53.7348 33 53.4804 32.8946 53.2929 32.7071C53.1054 32.5196 53 32.2652 53 32C53 31.7348 53.1054 31.4804 53.2929 31.2929C53.4804 31.1054 53.7348 31 54 31H55C55.2652 31 55.5196 31.1054 55.7071 31.2929C55.8946 31.4804 56 31.7348 56 32C56 32.2652 55.8946 32.5196 55.7071 32.7071C55.5196 32.8946 55.2652 33 55 33Z" fill="#050D17"/>
<path d="M55 41H54C53.7348 41 53.4804 40.8946 53.2929 40.7071C53.1054 40.5196 53 40.2652 53 40C53 39.7348 53.1054 39.4804 53.2929 39.2929C53.4804 39.1054 53.7348 39 54 39H55C55.2652 39 55.5196 39.1054 55.7071 39.2929C55.8946 39.4804 56 39.7348 56 40C56 40.2652 55.8946 40.5196 55.7071 40.7071C55.5196 40.8946 55.2652 41 55 41Z" fill="#050D17"/>
<path d="M55 25H54C53.7348 25 53.4804 24.8946 53.2929 24.7071C53.1054 24.5196 53 24.2652 53 24C53 23.7348 53.1054 23.4804 53.2929 23.2929C53.4804 23.1054 53.7348 23 54 23H55C55.2652 23 55.5196 23.1054 55.7071 23.2929C55.8946 23.4804 56 23.7348 56 24C56 24.2652 55.8946 24.5196 55.7071 24.7071C55.5196 24.8946 55.2652 25 55 25Z" fill="#050D17"/>
<path d="M55 29H54C53.7348 29 53.4804 28.8946 53.2929 28.7071C53.1054 28.5196 53 28.2652 53 28C53 27.7348 53.1054 27.4804 53.2929 27.2929C53.4804 27.1054 53.7348 27 54 27H55C55.2652 27 55.5196 27.1054 55.7071 27.2929C55.8946 27.4804 56 27.7348 56 28C56 28.2652 55.8946 28.5196 55.7071 28.7071C55.5196 28.8946 55.2652 29 55 29Z" fill="#050D17"/>
<path d="M55 37H54C53.7348 37 53.4804 36.8946 53.2929 36.7071C53.1054 36.5196 53 36.2652 53 36C53 35.7348 53.1054 35.4804 53.2929 35.2929C53.4804 35.1054 53.7348 35 54 35H55C55.2652 35 55.5196 35.1054 55.7071 35.2929C55.8946 35.4804 56 35.7348 56 36C56 36.2652 55.8946 36.5196 55.7071 36.7071C55.5196 36.8946 55.2652 37 55 37Z" fill="#050D17"/>
<path d="M44 31C43.7348 31 43.4804 30.8946 43.2929 30.7071C43.1054 30.5196 43 30.2652 43 30V24C43 23.7348 43.1054 23.4804 43.2929 23.2929C43.4804 23.1054 43.7348 23 44 23C44.2652 23 44.5196 23.1054 44.7071 23.2929C44.8946 23.4804 45 23.7348 45 24V30C45 30.2652 44.8946 30.5196 44.7071 30.7071C44.5196 30.8946 44.2652 31 44 31Z" fill="#050D17"/>
<path d="M52.747 77H46.157C44.5796 76.9981 43.0672 76.3707 41.9518 75.2552C40.8364 74.1398 40.2089 72.6275 40.207 71.05V68.75C40.207 68.4848 40.3124 68.2304 40.4999 68.0429C40.6875 67.8554 40.9418 67.75 41.207 67.75C41.4722 67.75 41.7266 67.8554 41.9141 68.0429C42.1017 68.2304 42.207 68.4848 42.207 68.75V71.05C42.2084 72.0972 42.6249 73.1011 43.3654 73.8416C44.1059 74.5821 45.1098 74.9987 46.157 75H52.747C53.7942 74.9987 54.7982 74.5821 55.5386 73.8416C56.2791 73.1011 56.6957 72.0972 56.697 71.05C56.6969 70.9507 56.7118 70.8519 56.741 70.757C58.236 65.886 60.429 57.485 59.95 55.676C59.662 54.736 55.515 49.876 52.661 47.811C52.5522 47.7351 52.4595 47.6383 52.3884 47.5262C52.3173 47.4141 52.2693 47.2889 52.2471 47.1581C52.2249 47.0272 52.2289 46.8933 52.259 46.764C52.2891 46.6347 52.3446 46.5127 52.4224 46.4051C52.5001 46.2975 52.5985 46.2065 52.7117 46.1373C52.825 46.0681 52.9509 46.0222 53.0821 46.0022C53.2133 45.9821 53.3472 45.9884 53.476 46.0207C53.6047 46.0529 53.7258 46.1105 53.832 46.19C56.5 48.118 61.432 53.443 61.883 55.166C62.633 57.999 59.453 68.724 58.695 71.207C58.6523 72.7567 58.0072 74.2288 56.8966 75.3105C55.7859 76.3922 54.2974 76.9982 52.747 77Z" fill="#050D17"/>
<path d="M38.1999 55.572C37.5523 55.5979 36.9106 55.4398 36.349 55.1161C35.7875 54.7924 35.3291 54.3164 35.0269 53.743C34.8176 53.3331 34.6917 52.8857 34.6565 52.4267C34.6212 51.9678 34.6773 51.5064 34.8216 51.0693C34.9658 50.6322 35.1953 50.2281 35.4968 49.8803C35.7983 49.5324 36.1657 49.2479 36.5779 49.043L42.3489 45.709C42.4627 45.6423 42.5885 45.5988 42.7192 45.5809C42.8498 45.563 42.9827 45.5712 43.1102 45.6049C43.2377 45.6386 43.3573 45.6972 43.4621 45.7773C43.5668 45.8574 43.6547 45.9575 43.7207 46.0717C43.7866 46.1859 43.8293 46.312 43.8463 46.4428C43.8633 46.5736 43.8543 46.7064 43.8197 46.8337C43.7852 46.961 43.7258 47.0801 43.645 47.1844C43.5642 47.2886 43.4635 47.3758 43.3489 47.441L37.5289 50.801C37.2701 50.924 37.0506 51.1167 36.8952 51.3574C36.7397 51.5982 36.6544 51.8775 36.6489 52.164C36.6505 52.3985 36.707 52.6293 36.8139 52.838C37.2979 53.788 38.5399 53.566 38.9089 53.474L38.9549 53.463C39.9969 52.9702 41.0132 52.4248 41.9999 51.829C42.113 51.7623 42.2382 51.7185 42.3683 51.7002C42.4983 51.6818 42.6307 51.6893 42.7579 51.7221C42.885 51.7549 43.0045 51.8125 43.1094 51.8915C43.2144 51.9705 43.3027 52.0694 43.3694 52.1825C43.4361 52.2956 43.4799 52.4208 43.4982 52.5509C43.5166 52.6809 43.5091 52.8133 43.4763 52.9405C43.4435 53.0676 43.3859 53.1871 43.3069 53.292C43.2279 53.3969 43.129 53.4853 43.0159 53.552C41.9027 54.2296 40.7492 54.8387 39.5619 55.376C39.4963 55.3968 39.4295 55.4138 39.3619 55.427C38.9819 55.5222 38.5917 55.5709 38.1999 55.572Z" fill="#050D17"/>
<path d="M39.5069 60.32C38.8823 60.3688 38.2574 60.2304 37.7118 59.9225C37.1662 59.6145 36.7248 59.151 36.4439 58.591C36.1987 58.1034 36.0697 57.5657 36.0669 57.02C36.0655 56.3732 36.2441 55.7387 36.5829 55.1876C36.9216 54.6366 37.4071 54.1907 37.9849 53.9L39.0729 53.4C39.3096 53.299 39.5761 53.2932 39.817 53.3836C40.0579 53.4741 40.2546 53.654 40.3663 53.8858C40.4779 54.1177 40.4959 54.3836 40.4165 54.6284C40.3371 54.8731 40.1664 55.0779 39.9399 55.2L38.8469 55.7C38.6091 55.8274 38.4106 56.0175 38.2731 56.2497C38.1356 56.4818 38.0643 56.7472 38.0669 57.017C38.0695 57.2509 38.1256 57.4811 38.2309 57.69C38.4199 58.065 38.7109 58.318 39.5069 58.318C39.7721 58.318 40.0265 58.4234 40.214 58.6109C40.4015 58.7984 40.5069 59.0528 40.5069 59.318C40.5069 59.5832 40.4015 59.8376 40.214 60.0251C40.0265 60.2126 39.7721 60.318 39.5069 60.318V60.32Z" fill="#050D17"/>
<path d="M52.352 59.083C52.1325 59.0822 51.9194 59.0093 51.7454 58.8754C51.5715 58.7415 51.4465 58.5541 51.3896 58.3421C51.3327 58.1301 51.3472 57.9053 51.4308 57.7023C51.5143 57.4993 51.6623 57.3295 51.852 57.219L53.852 56.053C54.0813 55.9195 54.3542 55.8825 54.6108 55.9502C54.8673 56.0179 55.0865 56.1847 55.22 56.414C55.3535 56.6433 55.3905 56.9162 55.3228 57.1728C55.2551 57.4293 55.0883 57.6485 54.859 57.782L52.859 58.948C52.705 59.0373 52.53 59.0839 52.352 59.083Z" fill="#050D17"/>
<path d="M55.3419 71.345H54.9299C54.6647 71.345 54.4104 71.2396 54.2228 71.0521C54.0353 70.8646 53.9299 70.6102 53.9299 70.345C53.9299 70.0798 54.0353 69.8254 54.2228 69.6379C54.4104 69.4504 54.6647 69.345 54.9299 69.345H55.3419C55.8069 69.345 57.2209 69.345 57.8509 66.967C57.8846 66.84 57.9429 66.7209 58.0225 66.6164C58.1022 66.512 58.2016 66.4242 58.3152 66.3582C58.4287 66.2922 58.5542 66.2492 58.6844 66.2316C58.8146 66.2141 58.9469 66.2224 59.0739 66.256C59.2009 66.2896 59.32 66.3479 59.4245 66.4276C59.529 66.5072 59.6167 66.6067 59.6827 66.7202C59.7487 66.8338 59.7918 66.9593 59.8093 67.0895C59.8268 67.2196 59.8185 67.352 59.7849 67.479C59.1239 69.972 57.5459 71.345 55.3419 71.345Z" fill="#050D17"/>
<path d="M42.9 48H36C35.2044 48 34.4413 47.6839 33.8787 47.1213C33.3161 46.5587 33 45.7956 33 45V24C33 23.7348 33.1054 23.4804 33.2929 23.2929C33.4804 23.1054 33.7348 23 34 23C34.2652 23 34.5196 23.1054 34.7071 23.2929C34.8946 23.4804 35 23.7348 35 24V45C35 45.2652 35.1054 45.5196 35.2929 45.7071C35.4804 45.8946 35.7348 46 36 46H42.9C43.1652 46 43.4196 46.1054 43.6071 46.2929C43.7946 46.4804 43.9 46.7348 43.9 47C43.9 47.2652 43.7946 47.5196 43.6071 47.7071C43.4196 47.8946 43.1652 48 42.9 48Z" fill="#050D17"/>
<path d="M60 48H50.3C50.0348 48 49.7805 47.8946 49.5929 47.7071C49.4054 47.5196 49.3 47.2652 49.3 47C49.3 46.7348 49.4054 46.4804 49.5929 46.2929C49.7805 46.1054 50.0348 46 50.3 46H60C60.2653 46 60.5196 45.8946 60.7072 45.7071C60.8947 45.5196 61 45.2652 61 45V24C61 23.7348 61.1054 23.4804 61.2929 23.2929C61.4805 23.1054 61.7348 23 62 23C62.2653 23 62.5196 23.1054 62.7072 23.2929C62.8947 23.4804 63 23.7348 63 24V45C63 45.7956 62.684 46.5587 62.1214 47.1213C61.5588 47.6839 60.7957 48 60 48Z" fill="#050D17"/>
<path d="M42.5471 71C42.2897 71 42.0422 70.9008 41.8561 70.723C41.3561 70.243 40.9071 69.782 40.5281 69.353C39.3946 68.1925 38.5851 66.7552 38.1803 65.1843C37.7755 63.6133 37.7896 61.9638 38.2211 60.4C38.3242 59.928 38.4551 59.4626 38.6131 59.006C39.0488 57.7762 39.5902 56.5864 40.2311 55.45C40.7852 54.4779 41.2537 53.4594 41.6311 52.406C42.0881 51.0214 42.2249 49.5511 42.0311 48.106C41.9691 47.582 41.9181 47.095 41.8871 46.64C41.6381 44.2031 41.9602 41.7417 42.8281 39.451C43.0574 38.5846 43.5754 37.8224 44.2965 37.2903C45.0176 36.7581 45.8986 36.4878 46.7941 36.524C47.6392 36.5448 48.4526 36.8498 49.1031 37.3898C49.7536 37.9298 50.2031 38.6732 50.3791 39.5C51.271 41.9281 51.5425 44.5404 51.1691 47.1C51.1281 47.447 51.0691 47.817 51.0021 48.175C50.7283 50.3352 50.913 52.5289 51.5441 54.613L54.2441 59.648C54.3697 59.8817 54.3973 60.1556 54.3209 60.4096C54.2444 60.6637 54.0702 60.8769 53.8366 61.0025C53.6029 61.1281 53.329 61.1557 53.0749 61.0793C52.8209 61.0029 52.6077 60.8287 52.4821 60.595L49.7321 55.475C49.704 55.4225 49.6806 55.3676 49.6621 55.311C48.9129 52.89 48.697 50.3354 49.0291 47.823C49.0851 47.507 49.1421 47.176 49.1801 46.854C49.522 44.5886 49.2794 42.2733 48.4751 40.128C48.458 40.0814 48.4443 40.0336 48.4341 39.985C48.3641 39.5799 48.1539 39.2123 47.8401 38.9467C47.5264 38.681 47.1292 38.5342 46.7181 38.532C46.2622 38.5159 45.8148 38.6581 45.4518 38.9344C45.0889 39.2108 44.8328 39.6042 44.7271 40.048C43.9314 42.099 43.6376 44.3104 43.8701 46.498C43.9001 46.936 43.9491 47.392 44.0071 47.884C44.2373 49.6162 44.0718 51.378 43.5231 53.037C43.114 54.1972 42.6044 55.3194 42.0001 56.391C41.4106 57.4344 40.9114 58.5264 40.5081 59.655C40.3741 60.0425 40.263 60.4375 40.1751 60.838C39.8203 62.0939 39.8051 63.4214 40.131 64.6851C40.4569 65.9487 41.1122 67.1033 42.0301 68.031C42.3691 68.416 42.7781 68.831 43.2401 69.278C43.3843 69.4162 43.4838 69.5943 43.5258 69.7895C43.5678 69.9848 43.5504 70.1881 43.4759 70.3733C43.4013 70.5586 43.273 70.7173 43.1075 70.829C42.942 70.9407 42.7468 71.0002 42.5471 71Z" fill="#050D17"/>
</g>
<defs>
<clipPath id="clip0_1_750">
<rect width="96" height="96" fill="white"/>
</clipPath>
</defs>
</svg>
