<svg width="96" height="96" viewBox="0 0 96 96" fill="none" xmlns="http://www.w3.org/2000/svg">
<g clip-path="url(#clip0_3_66)">
<path d="M48 96C74.5097 96 96 74.5097 96 48C96 21.4903 74.5097 0 48 0C21.4903 0 0 21.4903 0 48C0 74.5097 21.4903 96 48 96Z" fill="#068C72"/>
<path d="M18 68.1211H61.434V77.711H18V68.1211Z" stroke="#050D17" stroke-width="2"/>
<path d="M20.0683 68.1211C20.0683 66.4077 21.4573 64.2671 23.1707 64.2671H56.2633C57.9767 64.2671 59.3657 66.4077 59.3657 68.1211H20.0683Z" stroke="#050D17" stroke-width="2"/>
<path d="M30.0476 38.9239C28.5637 38.0672 28.0553 36.1698 28.912 34.6859L37.3133 20.1344C38.17 18.6506 40.0675 18.1421 41.5513 18.9989L51.4572 24.718C52.9411 25.5748 53.4495 27.4722 52.5928 28.956L44.1915 43.5075C43.3348 44.9914 41.4374 45.4998 39.9535 44.6431L30.0476 38.9239Z" stroke="#050D17" stroke-width="2"/>
<path d="M40.5311 18.494C39.5418 17.9228 39.2029 16.6579 39.774 15.6687L41.2949 13.0345C41.866 12.0452 43.131 11.7063 44.1202 12.2774L55.8173 19.0308C56.8066 19.6019 57.1455 20.8669 56.5744 21.8561L55.0535 24.4903C54.4824 25.4795 53.2174 25.8184 52.2282 25.2473L40.5311 18.494Z" stroke="#050D17" stroke-width="2"/>
<path d="M25.536 44.4662C24.5468 43.895 24.2078 42.6301 24.779 41.6409L26.2998 39.0067C26.871 38.0174 28.1359 37.6785 29.1251 38.2496L40.8223 45.003C41.8115 45.5741 42.1504 46.8391 41.5793 47.8283L40.0585 50.4625C39.4873 51.4517 38.2224 51.7907 37.2331 51.2195L25.536 44.4662Z" stroke="#050D17" stroke-width="2"/>
<path d="M50.06 33.3741L87.7624 53.436C89.8695 54.5572 90.6274 57.2019 89.434 59.269C88.2501 61.3196 85.6107 61.9943 83.588 60.7634L47.075 38.5442L50.06 33.3741Z" stroke="#050D17" stroke-width="2"/>
</g>
<defs>
<clipPath id="clip0_3_66">
<rect width="96" height="96" fill="white"/>
</clipPath>
</defs>
</svg>
