<svg width="96" height="96" viewBox="0 0 96 96" fill="none" xmlns="http://www.w3.org/2000/svg">
<g clip-path="url(#clip0_1_793)">
<path d="M48 96C74.5097 96 96 74.5097 96 48C96 21.4903 74.5097 0 48 0C21.4903 0 0 21.4903 0 48C0 74.5097 21.4903 96 48 96Z" fill="#068C72"/>
<path d="M62.699 38.9H40.369C40.1038 38.9 39.8495 38.7946 39.6619 38.6071C39.4744 38.4196 39.369 38.1652 39.369 37.9C39.369 37.6348 39.4744 37.3804 39.6619 37.1929C39.8495 37.0054 40.1038 36.9 40.369 36.9H62.699C62.9642 36.9 63.2186 37.0054 63.4061 37.1929C63.5937 37.3804 63.699 37.6348 63.699 37.9C63.699 38.1652 63.5937 38.4196 63.4061 38.6071C63.2186 38.7946 62.9642 38.9 62.699 38.9Z" fill="#050D17"/>
<path d="M65.949 44.53H37.139C36.8738 44.53 36.6195 44.4246 36.4319 44.2371C36.2444 44.0496 36.139 43.7952 36.139 43.53C36.139 43.2648 36.2444 43.0104 36.4319 42.8229C36.6195 42.6354 36.8738 42.53 37.139 42.53H65.949C66.2143 42.53 66.4686 42.6354 66.6561 42.8229C66.8437 43.0104 66.949 43.2648 66.949 43.53C66.949 43.7952 66.8437 44.0496 66.6561 44.2371C66.4686 44.4246 66.2143 44.53 65.949 44.53Z" fill="#050D17"/>
<path d="M59.829 50.17H43.249C42.9838 50.17 42.7295 50.0646 42.5419 49.8771C42.3544 49.6896 42.249 49.4352 42.249 49.17C42.249 48.9048 42.3544 48.6504 42.5419 48.4629C42.7295 48.2754 42.9838 48.17 43.249 48.17H59.829C60.0942 48.17 60.3486 48.2754 60.5361 48.4629C60.7237 48.6504 60.829 48.9048 60.829 49.17C60.829 49.4352 60.7237 49.6896 60.5361 49.8771C60.3486 50.0646 60.0942 50.17 59.829 50.17Z" fill="#050D17"/>
<path d="M50.699 71.07H32.879C32.1876 71.0674 31.5253 70.7915 31.0364 70.3026C30.5475 69.8137 30.2717 69.1514 30.269 68.46V27.3C30.269 27.0348 30.3744 26.7804 30.5619 26.5929C30.7495 26.4054 31.0038 26.3 31.269 26.3C31.5343 26.3 31.7886 26.4054 31.9762 26.5929C32.1637 26.7804 32.269 27.0348 32.269 27.3V68.46C32.269 68.6218 32.3333 68.7769 32.4477 68.8913C32.5621 69.0057 32.7173 69.07 32.879 69.07H50.699C50.9643 69.07 51.2186 69.1754 51.4062 69.3629C51.5937 69.5504 51.699 69.8048 51.699 70.07C51.699 70.3352 51.5937 70.5896 51.4062 70.7771C51.2186 70.9646 50.9643 71.07 50.699 71.07Z" fill="#050D17"/>
<path d="M70.7891 71.07H67.7891C67.5238 71.07 67.2695 70.9646 67.082 70.7771C66.8944 70.5896 66.7891 70.3352 66.7891 70.07C66.7891 69.8048 66.8944 69.5504 67.082 69.3629C67.2695 69.1754 67.5238 69.07 67.7891 69.07H70.7891C70.87 69.07 70.9502 69.0539 71.0248 69.0226C71.0995 68.9914 71.1672 68.9455 71.224 68.8878C71.2808 68.8301 71.3255 68.7617 71.3555 68.6865C71.3856 68.6113 71.4004 68.5309 71.3991 68.45L71.0491 27.31C71.0491 27.0448 71.1544 26.7904 71.342 26.6029C71.5295 26.4154 71.7838 26.31 72.0491 26.31C72.3143 26.31 72.5686 26.4154 72.7562 26.6029C72.9437 26.7904 73.0491 27.0448 73.0491 27.31L73.4091 68.46C73.4091 68.8036 73.3412 69.1438 73.2094 69.4611C73.0777 69.7784 72.8845 70.0666 72.6411 70.3091C72.3977 70.5516 72.1088 70.7436 71.7909 70.8742C71.4731 71.0048 71.1327 71.0713 70.7891 71.07Z" fill="#050D17"/>
<path d="M55.909 28.3H23.599C23.1755 28.2974 22.77 28.128 22.4706 27.8285C22.1711 27.529 22.0016 27.1235 21.999 26.7V24.07C22.0017 21.667 22.9567 19.3631 24.6549 17.663C26.3532 15.9629 28.6561 15.0053 31.059 15H63.979C64.2442 15 64.4986 15.1054 64.6861 15.2929C64.8737 15.4804 64.979 15.7348 64.979 16C64.979 16.2652 64.8737 16.5196 64.6861 16.7071C64.4986 16.8946 64.2442 17 63.979 17H31.059C29.1848 17.0026 27.388 17.7484 26.0627 19.0737C24.7374 20.399 23.9917 22.1957 23.989 24.07V26.3H55.909C56.1742 26.3 56.4286 26.4054 56.6161 26.5929C56.8037 26.7804 56.909 27.0348 56.909 27.3C56.909 27.5652 56.8037 27.8196 56.6161 28.0071C56.4286 28.1946 56.1742 28.3 55.909 28.3Z" fill="#050D17"/>
<path d="M55.9091 28.3C55.6438 28.3 55.3895 28.1946 55.202 28.0071C55.0144 27.8196 54.9091 27.5652 54.9091 27.3V24.07C54.9117 21.6653 55.8681 19.3598 57.5685 17.6595C59.2689 15.9591 61.5744 15.0026 63.9791 15C64.2443 15 64.4986 15.1054 64.6862 15.2929C64.8737 15.4804 64.9791 15.7348 64.9791 16C64.9791 16.2652 64.8737 16.5196 64.6862 16.7071C64.4986 16.8946 64.2443 17 63.9791 17C62.1048 17.0026 60.308 17.7484 58.9827 19.0737C57.6574 20.399 56.9117 22.1957 56.9091 24.07V27.3C56.9091 27.5652 56.8037 27.8196 56.6162 28.0071C56.4286 28.1946 56.1743 28.3 55.9091 28.3Z" fill="#050D17"/>
<path d="M72.049 28.3C71.7838 28.3 71.5294 28.1946 71.3419 28.0071C71.1544 27.8196 71.049 27.5652 71.049 27.3V24.07C71.0464 22.1957 70.3006 20.399 68.9753 19.0737C67.65 17.7484 65.8533 17.0026 63.979 17C63.7138 17 63.4594 16.8946 63.2719 16.7071C63.0844 16.5196 62.979 16.2652 62.979 16C62.979 15.7348 63.0844 15.4804 63.2719 15.2929C63.4594 15.1054 63.7138 15 63.979 15C66.3837 15.0026 68.6892 15.9591 70.3895 17.6595C72.0899 19.3598 73.0464 21.6653 73.049 24.07V27.3C73.049 27.5652 72.9436 27.8196 72.7561 28.0071C72.5686 28.1946 72.3142 28.3 72.049 28.3Z" fill="#050D17"/>
<path d="M59.449 73.2C59.1937 73.2012 58.9416 73.1431 58.7126 73.0303C58.4835 72.9175 58.2838 72.7531 58.129 72.55L57.619 71.9L56.829 72.13C56.5848 72.2022 56.3273 72.2172 56.0763 72.1739C55.8253 72.1306 55.5877 72.0302 55.3818 71.8803C55.1759 71.7305 55.0072 71.5352 54.8888 71.3098C54.7704 71.0843 54.7055 70.8346 54.699 70.58V69.75L53.919 69.47C53.6814 69.3828 53.4667 69.2426 53.2912 69.0602C53.1157 68.8778 52.9839 68.6579 52.9059 68.417C52.8279 68.1762 52.8056 67.9208 52.8408 67.6701C52.876 67.4194 52.9677 67.18 53.109 66.97L53.569 66.29L53.109 65.61C52.9657 65.4005 52.8724 65.161 52.8361 64.9098C52.7999 64.6586 52.8217 64.4025 52.8999 64.161C52.9781 63.9196 53.1107 63.6993 53.2874 63.5171C53.464 63.3349 53.6801 63.1956 53.919 63.11L54.699 62.83V62C54.7055 61.7454 54.7704 61.4957 54.8888 61.2702C55.0072 61.0448 55.1759 60.8495 55.3818 60.6997C55.5877 60.5498 55.8253 60.4494 56.0763 60.4061C56.3273 60.3628 56.5848 60.3778 56.829 60.45L57.619 60.68L58.129 60C58.2905 59.8085 58.4918 59.6546 58.719 59.549C58.9461 59.4434 59.1936 59.3887 59.444 59.3887C59.6945 59.3887 59.942 59.4434 60.1691 59.549C60.3963 59.6546 60.5976 59.8085 60.759 60L61.269 60.65L62.059 60.42C62.3057 60.3472 62.5658 60.3327 62.819 60.3776C63.0722 60.4225 63.3115 60.5256 63.5181 60.6788C63.7246 60.832 63.8927 61.0311 64.0092 61.2604C64.1256 61.4897 64.1872 61.7429 64.189 62V62.83L64.969 63.11C65.208 63.1956 65.4241 63.3349 65.6007 63.5171C65.7774 63.6993 65.91 63.9196 65.9882 64.161C66.0664 64.4025 66.0882 64.6586 66.052 64.9098C66.0157 65.161 65.9224 65.4005 65.779 65.61L65.3191 66.29L65.809 67C65.9504 67.21 66.0421 67.4494 66.0773 67.7001C66.1125 67.9508 66.0902 68.2062 66.0122 68.447C65.9342 68.6879 65.8024 68.9078 65.6269 69.0902C65.4514 69.2726 65.2367 69.4128 64.9991 69.5L64.219 69.78V70.61C64.2126 70.8646 64.1477 71.1143 64.0293 71.3398C63.9109 71.5652 63.7422 71.7605 63.5363 71.9103C63.3304 72.0602 63.0928 72.1606 62.8418 72.2039C62.5908 72.2472 62.3333 72.2322 62.089 72.16L61.299 71.93L60.789 72.58C60.6292 72.7803 60.4249 72.9406 60.1923 73.0482C59.9597 73.1559 59.7052 73.2078 59.449 73.2ZM57.759 69.85C58.0127 69.8504 58.2628 69.9092 58.49 70.0219C58.7172 70.1347 58.9153 70.2983 59.069 70.5L59.449 71L59.829 70.51C60.033 70.2455 60.3119 70.0486 60.6295 69.9451C60.947 69.8417 61.2884 69.8364 61.609 69.93L62.2091 70.1V69.48C62.2271 69.1498 62.3433 68.8325 62.5429 68.5688C62.7424 68.3052 63.0162 68.1071 63.329 68L63.909 67.79L63.559 67.28C63.3699 67.0049 63.2686 66.6789 63.2686 66.345C63.2686 66.0111 63.3699 65.6851 63.559 65.41L63.909 64.9L63.329 64.69C63.013 64.5784 62.7385 64.3731 62.542 64.1016C62.3455 63.83 62.2363 63.5051 62.229 63.17V62.55L61.629 62.72C61.3084 62.8136 60.967 62.8083 60.6495 62.7049C60.3319 62.6014 60.053 62.4045 59.849 62.14L59.469 61.65L59.089 62.14C58.886 62.4056 58.6071 62.6033 58.2893 62.7069C57.9714 62.8105 57.6296 62.815 57.309 62.72L56.699 62.5V63.12C56.6904 63.4547 56.5807 63.779 56.3844 64.0503C56.1881 64.3216 55.9143 64.5271 55.599 64.64L55.019 64.85L55.369 65.36C55.5582 65.6351 55.6595 65.9611 55.6595 66.295C55.6595 66.6289 55.5582 66.9549 55.369 67.23L55.019 67.74L55.569 68C55.8823 68.1048 56.1571 68.3007 56.3584 68.5625C56.5597 68.8244 56.6783 69.1404 56.699 69.47V70.09L57.299 69.92C57.4484 69.8754 57.6032 69.8519 57.759 69.85Z" fill="#050D17"/>
<path d="M62.699 81C62.5425 80.9991 62.3884 80.9614 62.249 80.89L59.409 79.47L56.569 80.89C56.4086 80.9698 56.2297 81.0051 56.051 80.9921C55.8723 80.9791 55.7003 80.9183 55.5531 80.8161C55.406 80.7139 55.2889 80.574 55.2143 80.4111C55.1397 80.2482 55.1103 80.0682 55.129 79.89L56.539 70.77C56.5827 70.5071 56.7283 70.272 56.9442 70.1158C57.1602 69.9596 57.429 69.8949 57.6924 69.9357C57.9557 69.9765 58.1924 70.1196 58.3509 70.3338C58.5094 70.5481 58.577 70.8162 58.539 71.08L57.429 78.29L58.989 77.51C59.1273 77.4413 59.2796 77.4055 59.434 77.4055C59.5884 77.4055 59.7408 77.4413 59.879 77.51L61.409 78.28L60.219 71C60.1841 70.7388 60.2523 70.4742 60.4091 70.2624C60.5659 70.0506 60.799 69.9082 61.059 69.8653C61.319 69.8224 61.5856 69.8824 61.8021 70.0326C62.0186 70.1828 62.1682 70.4114 62.219 70.67L63.699 79.83C63.724 79.9748 63.7168 80.1233 63.6779 80.265C63.6389 80.4067 63.5693 80.5381 63.4738 80.6498C63.3783 80.7615 63.2594 80.8508 63.1255 80.9113C62.9916 80.9719 62.846 81.0021 62.699 81Z" fill="#050D17"/>
</g>
<defs>
<clipPath id="clip0_1_793">
<rect width="96" height="96" fill="white"/>
</clipPath>
</defs>
</svg>
