<svg xmlns="http://www.w3.org/2000/svg" width="14.289" height="14.289" viewBox="0 0 14.289 14.289"><defs><style>.a{fill:#36b4a0;fill-rule:evenodd;}</style></defs><path class="a" d="M7.145,1.27A21.907,21.907,0,0,1,10,1.35a3.682,3.682,0,0,1,1.35.238,2.788,2.788,0,0,1,1.35,1.35,3.682,3.682,0,0,1,.238,1.35c0,.714.079.953.079,2.858A21.907,21.907,0,0,1,12.94,10a3.682,3.682,0,0,1-.238,1.35,2.788,2.788,0,0,1-1.35,1.35A3.682,3.682,0,0,1,10,12.94c-.714,0-.953.079-2.858.079a21.907,21.907,0,0,1-2.858-.079,3.682,3.682,0,0,1-1.35-.238,2.788,2.788,0,0,1-1.35-1.35A3.682,3.682,0,0,1,1.35,10c0-.714-.079-.953-.079-2.858A21.907,21.907,0,0,1,1.35,4.287a3.682,3.682,0,0,1,.238-1.35,2.851,2.851,0,0,1,.556-.794,1.342,1.342,0,0,1,.794-.556,3.682,3.682,0,0,1,1.35-.238A21.907,21.907,0,0,1,7.145,1.27m0-1.27A23.456,23.456,0,0,0,4.207.079,4.9,4.9,0,0,0,2.461.4a3.108,3.108,0,0,0-1.27.794A3.108,3.108,0,0,0,.4,2.461,3.617,3.617,0,0,0,.079,4.207,23.456,23.456,0,0,0,0,7.145a23.456,23.456,0,0,0,.079,2.937A4.9,4.9,0,0,0,.4,11.828a3.108,3.108,0,0,0,.794,1.27,3.108,3.108,0,0,0,1.27.794,4.9,4.9,0,0,0,1.746.318,23.456,23.456,0,0,0,2.937.079,23.457,23.457,0,0,0,2.937-.079,4.9,4.9,0,0,0,1.746-.318,3.331,3.331,0,0,0,2.064-2.064,4.9,4.9,0,0,0,.318-1.746c0-.794.079-1.032.079-2.937a23.456,23.456,0,0,0-.079-2.937,4.9,4.9,0,0,0-.318-1.746,3.108,3.108,0,0,0-.794-1.27A3.108,3.108,0,0,0,11.828.4,4.9,4.9,0,0,0,10.082.079,23.456,23.456,0,0,0,7.145,0m0,3.493A3.593,3.593,0,0,0,3.493,7.145,3.652,3.652,0,1,0,7.145,3.493m0,6.033A2.339,2.339,0,0,1,4.763,7.145,2.339,2.339,0,0,1,7.145,4.763,2.339,2.339,0,0,1,9.526,7.145,2.339,2.339,0,0,1,7.145,9.526m3.811-7.065a.873.873,0,1,0,.873.873.881.881,0,0,0-.873-.873"/></svg>