<svg xmlns="http://www.w3.org/2000/svg" width="15.387" height="10.841" viewBox="0 0 15.387 10.841"><defs><style>.a{fill:#36b4a0;}</style></defs><path class="a" d="M15.063,1.7A1.947,1.947,0,0,0,13.7.323,45.617,45.617,0,0,0,7.693,0,45.8,45.8,0,0,0,1.679.323,1.932,1.932,0,0,0,.315,1.7,20.673,20.673,0,0,0,0,5.42,20.126,20.126,0,0,0,.323,9.145a1.947,1.947,0,0,0,1.364,1.373,45.617,45.617,0,0,0,6.006.323,45.8,45.8,0,0,0,6.015-.323,1.932,1.932,0,0,0,1.364-1.373,20.673,20.673,0,0,0,.315-3.724A20.126,20.126,0,0,0,15.063,1.7ZM6.12,7.711V3.13L10.141,5.42Z"/></svg>