<svg width="96" height="96" viewBox="0 0 96 96" fill="none" xmlns="http://www.w3.org/2000/svg">
<g clip-path="url(#clip0_1_789)">
<path d="M48 96C74.5097 96 96 74.5097 96 48C96 21.4903 74.5097 0 48 0C21.4903 0 0 21.4903 0 48C0 74.5097 21.4903 96 48 96Z" fill="#068C72"/>
<path d="M66.506 33.19H58.464V29.744C58.464 28.2206 57.8588 26.7596 56.7816 25.6824C55.7044 24.6052 54.2434 24 52.72 24H43.53C42.0066 24 40.5456 24.6052 39.4684 25.6824C38.3912 26.7596 37.786 28.2206 37.786 29.744V33.19H29.744C28.9896 33.19 28.2426 33.3386 27.5456 33.6273C26.8487 33.9161 26.2154 34.3392 25.682 34.8727C25.1486 35.4062 24.7256 36.0395 24.4369 36.7366C24.1483 37.4336 23.9999 38.1806 24 38.935V66.506C24 68.0294 24.6052 69.4904 25.6824 70.5676C26.7596 71.6448 28.2206 72.25 29.744 72.25H52.72C53.025 72.25 53.3175 72.1288 53.5332 71.9132C53.7488 71.6975 53.87 71.405 53.87 71.1C53.87 70.795 53.7488 70.5025 53.5332 70.2868C53.3175 70.0712 53.025 69.95 52.72 69.95H29.744C28.8308 69.9495 27.9551 69.5864 27.3093 68.9407C26.6635 68.2949 26.3005 67.4192 26.3 66.506V52.72C27.2964 53.4613 28.5041 53.8639 29.746 53.869H33.19V57.315C33.19 57.6197 33.3111 57.912 33.5265 58.1275C33.742 58.3429 34.0343 58.464 34.339 58.464H38.939C39.2437 58.464 39.536 58.3429 39.7515 58.1275C39.9669 57.912 40.088 57.6197 40.088 57.315V53.869H56.167V57.315C56.167 57.6197 56.2881 57.912 56.5035 58.1275C56.719 58.3429 57.0113 58.464 57.316 58.464H61.916C62.2207 58.464 62.513 58.3429 62.7285 58.1275C62.9439 57.912 63.065 57.6197 63.065 57.315V53.869H66.511C67.7529 53.8639 68.9606 53.4613 69.957 52.72V66.506C69.957 67.4199 69.5939 68.2964 68.9477 68.9427C68.3014 69.5889 67.4249 69.952 66.511 69.952H57.321C57.016 69.952 56.7235 70.0732 56.5078 70.2888C56.2922 70.5045 56.171 70.797 56.171 71.102C56.171 71.407 56.2922 71.6995 56.5078 71.9152C56.7235 72.1308 57.016 72.252 57.321 72.252H66.511C68.0344 72.252 69.4954 71.6468 70.5726 70.5696C71.6498 69.4924 72.255 68.0314 72.255 66.508V38.935C72.2551 38.1802 72.1065 37.4327 71.8176 36.7354C71.5287 36.0381 71.1051 35.4045 70.5712 34.871C70.0373 34.3374 69.4034 33.9143 68.7059 33.6259C68.0084 33.3375 67.2608 33.1893 66.506 33.19ZM40.083 29.744C40.0835 28.8302 40.447 27.9541 41.0934 27.3082C41.7398 26.6624 42.6162 26.2997 43.53 26.3H52.72C53.1725 26.3 53.6206 26.3891 54.0387 26.5623C54.4568 26.7355 54.8367 26.9893 55.1567 27.3093C55.4767 27.6293 55.7305 28.0092 55.9037 28.4273C56.0769 28.8454 56.166 29.2935 56.166 29.746V33.19H40.083V29.744ZM37.783 56.167H35.483V49.274H37.783V56.167ZM60.759 56.167H58.459V49.274H60.759V56.167ZM66.503 51.567H63.06V48.125C63.06 47.8203 62.9389 47.528 62.7235 47.3125C62.508 47.0971 62.2157 46.976 61.911 46.976H57.311C57.0063 46.976 56.714 47.0971 56.4985 47.3125C56.2831 47.528 56.162 47.8203 56.162 48.125V51.571H40.083V48.125C40.083 47.9741 40.0533 47.8247 39.9955 47.6853C39.9378 47.5459 39.8532 47.4192 39.7465 47.3125C39.6398 47.2058 39.5131 47.1212 39.3737 47.0635C39.2343 47.0057 39.0849 46.976 38.934 46.976H34.334C34.0293 46.976 33.737 47.0971 33.5215 47.3125C33.3061 47.528 33.185 47.8203 33.185 48.125V51.571H29.744C28.8304 51.5705 27.9544 51.2072 27.3086 50.561C26.6628 49.9148 26.3 49.0386 26.3 48.125V38.935C26.3 38.0211 26.6631 37.1446 27.3093 36.4983C27.9556 35.8521 28.8321 35.489 29.746 35.489H66.506C67.4199 35.489 68.2964 35.8521 68.9427 36.4983C69.5889 37.1446 69.952 38.0211 69.952 38.935V48.125C69.952 49.0389 69.5889 49.9154 68.9427 50.5617C68.2964 51.2079 67.4199 51.571 66.506 51.571L66.503 51.567Z" fill="#050D17"/>
</g>
<defs>
<clipPath id="clip0_1_789">
<rect width="96" height="96" fill="white"/>
</clipPath>
</defs>
</svg>
