<?xml version="1.0" encoding="UTF-8"?><svg id="lodging" xmlns="http://www.w3.org/2000/svg" viewBox="0 0 96.85 109.16"><defs><style>.cls-1{stroke-width:2px;}.cls-1,.cls-2{fill:none;stroke:#000;stroke-miterlimit:10;}</style></defs><path class="cls-1" d="M69.37,71.63c-1.05,1.32-2.67,2.16-4.49,2.16-3.18,0-5.75-2.58-5.75-5.75s2.58-5.75,5.75-5.75c1.49,0,2.85.57,3.87,1.5"/><path class="cls-1" d="M62.94,62.74c0-3.26,2.64-5.91,5.91-5.91s5.91,2.64,5.91,5.91c0,1.63-.66,3.11-1.73,4.18"/><path class="cls-1" d="M74.5,63.51c2.4.49,4.2,2.61,4.2,5.15,0,2.91-2.36,5.26-5.26,5.26-1.64,0-3.11-.75-4.07-1.93"/><line class="cls-1" x1="69.37" y1="67.73" x2="69.37" y2="83.31"/><path class="cls-1" d="M69.28,71.84c-.57-.2-1.13-.47-1.55-.9-.42-.43-.69-1.04-.6-1.64"/><path class="cls-1" d="M69.28,71.84c.57-.2,1.13-.47,1.55-.9.42-.43.69-1.04.6-1.64"/><rect class="cls-1" x="19.79" y="45.92" width="29.37" height="37.4"/><polyline class="cls-1" points="71.96 83.31 49.16 83.31 49.16 25.21 71.96 25.21 71.96 54.26"/><rect class="cls-1" x="19.79" y="25.21" width="29.37" height="11.8"/><line class="cls-2" x1="25.78" y1="28.09" x2="25.78" y2="33.28"/><line class="cls-2" x1="28.9" y1="28.09" x2="28.9" y2="33.28"/><line class="cls-2" x1="25.78" y1="30.88" x2="28.9" y2="30.88"/><path class="cls-2" d="M31.1,28.71h1.41c.22,0,.4.2.4.44v3.06c0,.24-.18.44-.4.44h-1.41c-.22,0-.4-.2-.4-.44v-3.06c0-.24.18-.44.4-.44Z"/><line class="cls-2" x1="34.02" y1="28.69" x2="37.53" y2="28.69"/><line class="cls-2" x1="35.78" y1="28.69" x2="35.78" y2="33.28"/><line class="cls-2" x1="41.55" y1="32.65" x2="45.07" y2="32.65"/><line class="cls-2" x1="42.19" y1="28.09" x2="42.19" y2="33.28"/><line class="cls-2" x1="38.1" y1="28.78" x2="40.65" y2="28.78"/><line class="cls-2" x1="38.17" y1="30.69" x2="40.72" y2="30.69"/><line class="cls-2" x1="38.09" y1="32.62" x2="40.64" y2="32.62"/><line class="cls-2" x1="38.74" y1="28.21" x2="38.74" y2="32.62"/><polygon class="cls-1" points="26.64 49.3 26.78 49.6 27.11 49.65 26.87 49.87 26.93 50.2 26.64 50.05 26.35 50.2 26.4 49.87 26.17 49.65 26.49 49.6 26.64 49.3"/><polygon class="cls-1" points="30.6 49.3 30.75 49.6 31.07 49.65 30.84 49.87 30.89 50.2 30.6 50.05 30.31 50.2 30.37 49.87 30.13 49.65 30.46 49.6 30.6 49.3"/><polygon class="cls-1" points="34.57 49.3 34.71 49.6 35.04 49.65 34.8 49.87 34.86 50.2 34.57 50.05 34.28 50.2 34.33 49.87 34.1 49.65 34.42 49.6 34.57 49.3"/><polygon class="cls-1" points="38.53 49.3 38.68 49.6 39 49.65 38.77 49.87 38.82 50.2 38.53 50.05 38.24 50.2 38.3 49.87 38.06 49.65 38.39 49.6 38.53 49.3"/><polygon class="cls-1" points="42.5 49.3 42.64 49.6 42.97 49.65 42.73 49.87 42.79 50.2 42.5 50.05 42.21 50.2 42.27 49.87 42.03 49.65 42.35 49.6 42.5 49.3"/><line class="cls-1" x1="25.78" y1="70.14" x2="43.17" y2="70.14"/><line class="cls-1" x1="34.47" y1="70.14" x2="34.47" y2="83.94"/><rect class="cls-1" x="27.32" y="70.14" width="14.31" height="13.17"/><polyline class="cls-1" points="25.29 59.76 25.29 53.69 43.85 53.69 43.85 59.76"/><polyline class="cls-1" points="43.85 59.76 43.85 65.82 25.29 65.82 25.29 59.76"/><line class="cls-1" x1="15.25" y1="83.31" x2="76.5" y2="83.31"/><rect class="cls-1" x="53.13" y="34.32" width="14.86" height="5.12"/><rect class="cls-1" x="53.13" y="45.91" width="14.86" height="5.12"/><polyline class="cls-1" points="59.12 62.62 53.13 62.62 53.13 57.5 62.94 57.5"/><polyline class="cls-1" points="60.15 74.21 53.13 74.21 53.13 69.09 57.2 69.09"/><line class="cls-1" x1="25.19" y1="57.52" x2="43.75" y2="57.52"/></svg>