<?xml version="1.0" encoding="UTF-8"?><svg id="agenda_minutes" xmlns="http://www.w3.org/2000/svg" viewBox="0 0 109.03 109.16"><defs><style>.cls-1{stroke-width:0px;}</style></defs><path class="cls-1" d="M1.76,81.56c-.97,0-1.76-.79-1.76-1.76v-.16c0-.3.02-.58.04-.83,0-.03,0-.05,0-.08.02-.15.04-.34.09-.55.33-2.17,1.34-4.21,2.84-5.75L47.13,27.17c2-2.05,4.77-3.17,7.59-3.07l50.85,1.75c.7.02,1.32.46,1.58,1.11.26.65.1,1.39-.39,1.89l-29.9,29.9c-.69.69-1.8.69-2.49,0-.69-.69-.69-1.8,0-2.49l27.03-27.03-46.8-1.61c-1.84-.06-3.65.67-4.96,2.01L5.5,74.88c-1.01,1.03-1.68,2.41-1.89,3.87,0,.06-.02.11-.03.17,0,.04-.02.11-.03.19-.01.19-.03.37-.03.53v.16c0,.97-.79,1.76-1.76,1.76Z"/><path class="cls-1" d="M58.03,104.99c-.21,0-.43-.04-.63-.12L2.99,83.97C1.23,83.3.06,81.62,0,79.69c0-.02,0-.03,0-.05v-.4c0-.12,0-.31.04-.54.02-.24.06-.47.13-.69.21-.81.63-1.55,1.23-2.13.89-.88,2.11-1.38,3.36-1.35l23.87.79h.13c.97,0,1.76.79,1.76,1.76s-.79,1.76-1.76,1.76h-.16s-.04,0-.06,0l-23.88-.79c-.28,0-.57.12-.8.34-.16.15-.25.33-.3.52,0,.03-.02.06-.02.09,0,.1-.02.19-.03.28v.32c.02.48.31.91.73,1.07l53.35,20.5,46.71-46.71-1.12-.56c-.87-.44-1.22-1.49-.78-2.36.44-.87,1.49-1.22,2.36-.78l3.3,1.66c.5.25.86.73.95,1.29.09.56-.09,1.12-.49,1.52l-49.24,49.24c-.34.34-.79.52-1.24.52ZM3.47,79.48s0,0,0,0c0,0,0,0,0,0ZM3.52,79.11s0,0,0,0c0,0,0,0,0,0ZM3.55,78.94h0Z"/><path class="cls-1" d="M79.86,37.56s-.04,0-.06,0l-20.43-.68c-.97-.03-1.73-.85-1.7-1.82.03-.97.85-1.73,1.82-1.7l20.43.68c.97.03,1.73.85,1.7,1.82-.03.95-.81,1.7-1.76,1.7Z"/><path class="cls-1" d="M69.24,44.85s-.04,0-.06,0l-13.63-.45c-.97-.03-1.73-.85-1.7-1.82.03-.97.84-1.73,1.82-1.7l13.63.45c.97.03,1.73.85,1.7,1.82-.03.95-.81,1.7-1.76,1.7Z"/><path class="cls-1" d="M56.27,92.68c-.13,0-.26-.01-.39-.04L1.44,80.38c-.33-.07-.63-.24-.87-.49l-.02-.02c-.68-.69-.67-1.81.03-2.49.5-.49,1.21-.62,1.83-.39l53.3,12,46.45-46.45-1.32-.38c-.93-.27-1.47-1.24-1.2-2.18.27-.93,1.24-1.47,2.18-1.2l4.18,1.2c.6.17,1.06.65,1.22,1.25.16.6-.02,1.24-.46,1.68l-49.24,49.24c-.33.33-.78.52-1.24.52Z"/><path class="cls-1" d="M30.68,78.89c-.71,0-1.41-.02-2.11-.05-.13,0-.26,0-.4,0-.97-.03-1.73-.85-1.7-1.82.03-.97.84-1.73,1.82-1.7.1,0,.21,0,.31,0,.02,0,.05,0,.07,0,.04,0,.09,0,.13,0,6.37,0,11.39-3.94,14.5-7.29,3.85-4.15,5.89-8.6,5.94-9.93.03-.64.4-1.21.97-1.5.57-.29,1.26-.24,1.78.13,1.71,1.18,6,2.59,10.57,2.87,2.95.18,8.31,0,11.57-3.08.08-.08.17-.16.25-.24.68-.68,1.79-.69,2.48,0,.69.68.7,1.79.02,2.48-.1.1-.2.21-.31.3-6.79,6.61-26.73,19.85-45.89,19.85ZM52.14,60.78c-1.01,2.7-3.22,6.36-6.26,9.64-1.05,1.13-2.28,2.31-3.69,3.42,5.38-1.36,10.29-3.43,14.11-5.33,3.39-1.68,6.56-3.55,9.34-5.39-.5.03-1,.04-1.49.04-4.53,0-9.01-1.06-12-2.37Z"/></svg>