<?xml version="1.0" encoding="UTF-8"?><svg id="Layer_43" xmlns="http://www.w3.org/2000/svg" viewBox="0 0 87.34 109.16"><defs><style>.cls-1{fill:none;stroke:#000;stroke-linecap:round;stroke-linejoin:round;stroke-width:2px;}</style></defs><line class="cls-1" x1="35.25" y1="78.09" x2="46.97" y2="78.09"/><line class="cls-1" x1="41.88" y1="62.7" x2="39.04" y2="78.09"/><line class="cls-1" x1="36.53" y1="64.72" x2="35.25" y2="78.09"/><line class="cls-1" x1="27.51" y1="64.72" x2="36.53" y2="64.72"/><line class="cls-1" x1="30.8" y1="59.55" x2="39.62" y2="60.19"/><line class="cls-1" x1="45.09" y1="55.31" x2="45.09" y2="78.09"/><line class="cls-1" x1="48.83" y1="55.31" x2="48.83" y2="78.09"/><line class="cls-1" x1="31.91" y1="52.94" x2="30.8" y2="59.55"/><path class="cls-1" d="M27.88,64.72h-3.1c-1.22,0-2.07-1-1.88-2.22l2.47-16.09c.19-1.22,1.34-2.22,2.56-2.22h3.1c.91,0,1.62.56,1.84,1.35"/><path class="cls-1" d="M39.62,60.19c1.25,0,2.26,1.01,2.26,2.26"/><path class="cls-1" d="M32.87,45.53s.78,6.98,8.61,6.98c0,0,2.31-.1,2.31,2.8"/><path class="cls-1" d="M28.6,48.93s1.76,6.38,12.72,6.38"/><line class="cls-1" x1="52.87" y1="55.31" x2="40.03" y2="55.31"/><path class="cls-1" d="M33.59,36.24c0,2.86-1.83,5.18-4.08,5.18s-4.08-2.32-4.08-5.18,1.82-5.17,4.08-5.17,4.08,2.32,4.08,5.17Z"/><path class="cls-1" d="M68.36,36.24c0,2.86-1.83,5.18-4.08,5.18s-4.08-2.32-4.08-5.18,1.82-5.17,4.08-5.17,4.08,2.32,4.08,5.17Z"/><line class="cls-1" x1="52.07" y1="62.7" x2="54.91" y2="78.09"/><line class="cls-1" x1="57.41" y1="64.72" x2="58.69" y2="78.09"/><line class="cls-1" x1="66.44" y1="64.72" x2="57.41" y2="64.72"/><line class="cls-1" x1="63.15" y1="59.55" x2="54.33" y2="60.19"/><line class="cls-1" x1="62.03" y1="52.94" x2="63.15" y2="59.55"/><path class="cls-1" d="M66.06,64.72h3.1c1.22,0,2.07-1,1.88-2.22l-2.47-16.09c-.19-1.22-1.34-2.22-2.56-2.22h-3.1c-.91,0-1.62.56-1.84,1.35"/><path class="cls-1" d="M54.33,60.19c-1.25,0-2.26,1.01-2.26,2.26"/><path class="cls-1" d="M61.08,45.53s-.78,6.98-8.61,6.98c0,0-2.31-.1-2.31,2.8"/><path class="cls-1" d="M65.35,48.93s-1.76,6.38-12.72,6.38"/><line class="cls-1" x1="58.69" y1="78.09" x2="46.97" y2="78.09"/><path class="cls-1" d="M50.41,38.29c0,2.41-1.7,4.36-3.79,4.36s-3.79-1.95-3.79-4.36,1.69-4.36,3.79-4.36,3.79,1.95,3.79,4.36Z"/><path class="cls-1" d="M53.91,50.64v-2.96c0-1.81-1.48-3.3-3.3-3.3h-.52s-.96,1.56-3.47,1.56-3.28-1.56-3.28-1.56h-.3c-1.81,0-3.3,1.49-3.3,3.3v2.96"/></svg>