<?xml version="1.0" encoding="UTF-8"?><svg id="Employment" xmlns="http://www.w3.org/2000/svg" viewBox="0 0 84.55 109.16"><defs><style>.cls-1{fill:none;stroke:#000;stroke-linecap:round;stroke-linejoin:round;stroke-width:2px;}</style></defs><path class="cls-1" d="M47.8,71.42h0c-1.56-1.56-4.08-1.56-5.64,0l-2.17,2.17c-1.56,1.56-1.56,4.08,0,5.64h0c1.56,1.56,4.08,1.56,5.64,0l2.17-2.17c1.56-1.56,1.56-4.08,0-5.64Z"/><path class="cls-1" d="M42.16,65.78h0c-1.56-1.56-4.08-1.56-5.64,0l-2.17,2.17c-1.56,1.56-1.56,4.08,0,5.64h0c1.56,1.56,4.08,1.56,5.64,0l2.17-2.17c1.56-1.56,1.56-4.08,0-5.64Z"/><path class="cls-1" d="M36.52,60.14h0c-1.56-1.56-4.08-1.56-5.64,0l-2.17,2.17c-1.56,1.56-1.56,4.08,0,5.64h0c1.56,1.56,4.08,1.56,5.64,0l2.17-2.17c1.56-1.56,1.56-4.08,0-5.64Z"/><path class="cls-1" d="M30.88,54.5h0c-1.56-1.56-4.08-1.56-5.64,0l-2.17,2.17c-1.56,1.56-1.56,4.08,0,5.64h0c1.56,1.56,4.08,1.56,5.64,0l2.17-2.17c1.56-1.56,1.56-4.08,0-5.64Z"/><line class="cls-1" x1="73.55" y1="45.34" x2="66.5" y2="52.38"/><path class="cls-1" d="M46.47,33.22l.02-.02c1.81-1.81,4.62-2.02,6.67-.63l3.81-3.81"/><path class="cls-1" d="M53.84,73.56c1.56,1.56,4.08,1.56,5.64,0h0c1.56-1.56,1.56-4.08,0-5.64"/><path class="cls-1" d="M46.93,77.93l.66.66.6.6c1.56,1.56,4.08,1.56,5.64,0h0c1.56-1.56,1.56-4.08,0-5.64"/><line class="cls-1" x1="20.31" y1="45.34" x2="28.43" y2="53.46"/><path class="cls-1" d="M45.15,34.54c-1.29.02-2.25.22-2.25.22l-6.01-6.01"/><path class="cls-1" d="M59.48,67.92c1.56,1.56,4.08,1.56,5.64,0h0c1.56-1.56,1.56-4.08,0-5.64,1.56,1.56,4.08,1.56,5.64,0h0c1.56-1.56,1.56-4.08,0-5.64l-4.59-4.59-13.65-13.65-7.31,7.31v6.39c0,2.2-1.79,3.99-3.99,3.99s-3.99-1.79-3.99-3.99v-7.15c0-.24.02-.47.06-.7-.07-1.1.31-2.23,1.16-3.07l8.36-8.36"/><line class="cls-1" x1="65.12" y1="62.28" x2="59.85" y2="57.02"/><line class="cls-1" x1="59.48" y1="67.92" x2="54.21" y2="62.66"/><line class="cls-1" x1="53.84" y1="73.56" x2="48.57" y2="68.3"/></svg>