<?xml version="1.0" encoding="UTF-8"?><svg id="Council-rules" xmlns="http://www.w3.org/2000/svg" viewBox="0 0 109.03 109.16"><defs><style>.cls-1{fill:none;stroke:#000;stroke-linejoin:round;stroke-width:2px;}</style></defs><path class="cls-1" d="M72.78,63.98v-5.47c0-6.36-4.77-9.94-11.05-11.22l-5.63,5.13-5.62-5.13c-6.28,1.29-11.06,4.9-11.06,11.21v5.47"/><path class="cls-1" d="M56.11,24.96c-5.12,0-9.26,4.15-9.26,9.26s4.15,9.26,9.26,9.26,9.27-4.15,9.27-9.26-4.15-9.26-9.27-9.26Z"/><path class="cls-1" d="M39.43,50.95c-1.17-.55-2.47-.97-3.86-1.25l-4.81,4.39-4.8-4.38c-5.37,1.1-9.45,4.18-9.45,9.58v2.19"/><path class="cls-1" d="M30.76,30.61c-4.37,0-7.92,3.55-7.92,7.92s3.55,7.92,7.92,7.92,7.92-3.54,7.92-7.92-3.55-7.92-7.92-7.92Z"/><path class="cls-1" d="M95.52,61.49v-2.19c0-5.44-4.08-8.5-9.45-9.59l-4.81,4.39-4.81-4.38c-1.25.25-2.43.62-3.5,1.09"/><path class="cls-1" d="M81.26,30.61c-4.37,0-7.92,3.55-7.92,7.92s3.55,7.92,7.92,7.92,7.92-3.54,7.92-7.92-3.55-7.92-7.92-7.92Z"/><path class="cls-1" d="M69.36,70.85c0,7.37-5.98,13.35-13.35,13.35s-13.35-5.98-13.35-13.35,5.98-13.35,13.35-13.35,13.35,5.98,13.35,13.35Z"/><path class="cls-1" d="M64.37,70.85c0,4.61-3.74,8.35-8.35,8.35s-8.36-3.74-8.36-8.35,3.74-8.36,8.36-8.36,8.35,3.74,8.35,8.36Z"/><path class="cls-1" d="M59.54,70.84c0,1.95-1.58,3.53-3.53,3.53s-3.53-1.58-3.53-3.53,1.58-3.53,3.53-3.53,3.53,1.58,3.53,3.53Z"/></svg>