<?xml version="1.0" encoding="UTF-8"?><svg id="Citizen_Commissions" xmlns="http://www.w3.org/2000/svg" viewBox="0 0 97.31 109.16"><defs><style>.cls-1{stroke-miterlimit:10;}.cls-1,.cls-2{fill:none;stroke:#000;stroke-width:2px;}.cls-2{stroke-linejoin:round;}</style></defs><path class="cls-2" d="M30.1,39.66c0,2.86,2.32,5.18,5.18,5.18s5.18-2.32,5.18-5.18-2.32-5.18-5.18-5.18-5.18,2.33-5.18,5.18Z"/><path class="cls-2" d="M43.81,56.08v-2.54c0-2.86-2.12-5.22-5.7-5.97l-2.84,2.24-2.84-2.24c-3.71.77-5.69,3.23-5.69,5.97v2.54"/><path class="cls-2" d="M64.57,56.08v-2.66c2.08,0,3.12-1.22,3.12-2.75l.02-9.53c0-4.91-2.12-6.91-6.12-7.18l-3.19,2.62-3.18-2.62c-4.01.26-6.13,2.26-6.13,7.18l.02,9.53c0,1.53,1.08,2.75,3.1,2.75v2.66"/><path class="cls-2" d="M58.4,20.86c-2.89,0-5.23,2.34-5.23,5.23s2.34,5.23,5.23,5.23,5.23-2.34,5.23-5.23-2.34-5.23-5.23-5.23Z"/><path class="cls-1" d="M23.15,80.77v-.78c0-2.78,2.02-5.56,7.45-5.56h4.76c5.35,0,7.4,2.59,7.4,5.55v.79"/><path class="cls-1" d="M32.95,71.72c3.09,0,5.6-2.5,5.6-5.59s-2.5-5.6-5.6-5.6-5.6,2.5-5.6,5.6,2.51,5.59,5.6,5.59Z"/><path class="cls-2" d="M21.83,88.29v-5.05c0-1.45,1.18-2.64,2.64-2.64h16.97c1.46,0,2.64,1.18,2.64,2.64v5.05"/><path class="cls-1" d="M52.12,80.77v-.78c0-2.78,2.02-5.56,7.45-5.56h4.76c5.35,0,7.4,2.59,7.4,5.55v.79"/><path class="cls-1" d="M61.92,71.72c3.09,0,5.6-2.5,5.6-5.59s-2.51-5.6-5.6-5.6-5.6,2.5-5.6,5.6,2.51,5.59,5.6,5.59Z"/><path class="cls-2" d="M50.8,88.29v-5.05c0-1.45,1.18-2.64,2.64-2.64h16.97c1.46,0,2.64,1.18,2.64,2.64v5.05"/><polyline class="cls-2" points="24.52 76.47 14.58 76.47 21.58 56.08 73.28 56.08 80.28 76.47 70.42 76.47"/><line class="cls-2" x1="41.56" y1="76.47" x2="53.38" y2="76.47"/></svg>